<svg xmlns="http://www.w3.org/2000/svg" viewBox="0 0 114.58 93.12"><defs><style>.cls-1{fill:#f9fcfc;}.cls-2{fill:#1e9cd7;}.cls-3{fill:#1c91a0;}.cls-4{fill:#fff;}</style></defs><title>krt-logo_1</title><g id="Layer_2" data-name="Layer 2"><g id="Layer_1-2" data-name="Layer 1"><path class="cls-1" d="M114.49,59.79H.05V55.22H114.49m-.18-43.93a13.7,13.7,0,0,0-.41-2.67A11.71,11.71,0,0,0,102.65,0H11.24C5.56,0,.05,5.48.05,11.16q0,21.54,0,43.07c0,.39-.24.88.25,1.19l.48,0H113.45c.34,0,.68-.06,1-.09,0-.35.06-.59.06-.83q0-21.12,0-42.23C114.54,12,114.65,11.57,114.31,11.29ZM.05,59.79v22A11.85,11.85,0,0,0,11.37,93.12q45.72,0,91.42,0a11.69,11.69,0,0,0,6.68-2.28c3.67-2.51,5-6.29,5.06-10.52.1-6.48,0-13,0-19.43,0-.35,0-.7-.06-1.1Z"/><path class="cls-2" d="M.31,55.42c-.49-.31-.25-.8-.25-1.19q0-21.54,0-43.07C.05,5.48,5.56,0,11.24,0h91.41A11.71,11.71,0,0,1,113.9,8.62a13.7,13.7,0,0,1,.41,2.67V55.22h-1.66q-55.19,0-110.36,0C1.63,55.23.93,55,.31,55.42ZM58.38,45.6a14.74,14.74,0,0,0,0-5.46,17.21,17.21,0,0,1,1-10.33c1.5-3.17,4.41-4.33,7.8-4.37a3.85,3.85,0,0,0,3.84-3.59A3.6,3.6,0,0,0,68.23,18c-2.45-.64-4.82,0-7.07.78a13.93,13.93,0,0,0-8.38,7.31,26.39,26.39,0,0,0-2.1,7,2.42,2.42,0,0,0-.2.65q0,5.87,0,11.73c0,.14-.22.51.22.47.74,1.86,1.91,3.12,4.09,3S57.88,47.46,58.38,45.6ZM28.88,10.1a3.57,3.57,0,0,1-.3-.38c-1.17-1.89-3.07-1.94-4.81-1.45-1.52.43-2.16,1.8-2.15,3.53.05,11.18,0,22.37,0,33.55a3.76,3.76,0,0,0,.21,1.39A3.69,3.69,0,0,0,25.68,49a3.52,3.52,0,0,0,3.43-3,4.16,4.16,0,0,0,.2-.9q0-17,0-34.08C29.31,10.69,29.48,10.2,28.88,10.1ZM90.32,41.31a6.85,6.85,0,0,1-4.71-1.91c-4.1-4-2.76-9.08-3-13.88,5.48-.47,6.75-2.31,4.77-6.63L85.47,18c-1.17-.47-2.38-.12-3.57-.21-2.59-.4-3-2.43-3.23-4.5a3.56,3.56,0,0,0-3.73,3.82c.11,5.71-.36,11.42.27,17.11A18.07,18.07,0,0,0,79.26,44a14.62,14.62,0,0,0,8.37,4.82,15.62,15.62,0,0,0,5.37,0,3,3,0,0,0,2.26-2.76,3.77,3.77,0,0,0-2.15-4.36C92.29,40.84,91.24,41.5,90.32,41.31ZM29.66,32.46c1.1,1.5,2.06,2.82,3,4.13,2.72,3.69,5.39,7.42,8.2,11a3.25,3.25,0,0,0,3.64,1.11c3.18-1,3.95-3.79,1.86-6.55C44,39.08,41.69,36,39.3,32.78c.21-.36.38-.71.61-1,2-2.72,4-5.42,6-8.18A3.34,3.34,0,0,0,45.74,19c-1.55-1.67-3.44-2-5.09-.75-1.82,1.36-2.78,3.47-4.16,5.22C34.18,26.42,32,29.42,29.66,32.46Z"/><path class="cls-3" d="M.05,59.79H114.49c0,.4.06.75.06,1.1,0,6.47.08,13,0,19.43-.06,4.23-1.39,8-5.06,10.52a11.69,11.69,0,0,1-6.68,2.28q-45.71,0-91.42,0A11.85,11.85,0,0,1,.05,81.8v-22Zm26.15,13c-.92-2.22-.83-4.68-1.58-7H22.85l-1.45,8c.66.11,1.13.21,1.61-.19l.15-1.57a1.47,1.47,0,0,1,1.27.17l.2,1.65h1.45l.16-.94c1.07-.11.56-.75.4-1.28Zm-8.33-7H16.6l-.84,4.34-.71-4.32h-1.5l1.54,8c.51.06,1,.23,1.39-.16l.71-4.47.92,4.66h1.3l1.36-8H19.35l-.7,4.35ZM81.38,85.11V81.8l.22,0,1.24,3.33h1.35v-8H82.85V81.2l-1.56-4.13-1.23.06v8ZM40.61,80.9l1.57,4.24c.48,0,.88.17,1.2-.12v-8L42,77.13v3.78l-1.39-3.7a1.55,1.55,0,0,0-1.29-.06v8.34l1.25-.5Zm63.89-7.23-1-3.37a2.8,2.8,0,0,0,.42-3.59c-.9-1.5-2.52-.82-3.91-.92v8h1.47c.29-1.1-.16-2.23.36-3.42.75,1.3.49,2.88,1.78,3.82ZM49.41,77.82c-1.21-1-2.54-.8-3.9-.67a4.32,4.32,0,0,0-.07.53c0,2.42,0,4.85,0,7.25,1.48,1,4.12.1,4.21-1.48A16.12,16.12,0,0,0,49.41,77.82Zm25.91-5.28v-5.3c1.14-.16.64.94,1,1.32h1.56c-.2-1.2-.14-2.49-1.62-2.75-1.15-.21-2.38-.06-2.57,1.4a12.32,12.32,0,0,0,.22,6c1.31,1.39,2.68.09,3.87.78.17-1.47-.12-2.75.36-4.09a4.24,4.24,0,0,0-2.65-.15v1.16l.68.33C76.16,71.74,76.27,72.25,75.32,72.54ZM66.2,73.77c-.14-1.26-1.3-2.39-.73-3.63s.94-2.56,0-3.65-2.37-.75-3.66-.64v8H63.2V70.6l.37-.06,1.2,3.5A1.29,1.29,0,0,0,66.2,73.77Zm-8.69,3.32v8.09l1.41-.08V81.53c1.07,1.34.79,2.85,1.69,3.83.5.06,1,.22,1.3-.34l-1.07-3.33A3,3,0,0,0,61.3,78C60.4,76.57,58.9,77.14,57.51,77.09ZM8.57,65.8v8h1.65v-3l.27,0,1,3h1.57c-.79-2.67-2.62-5.23.05-8H11.41c-.57.54-.52,1.39-1.25,1.78l-.08-1.82ZM37.85,85.13l-1.54-8H34.44l-1.45,8A1.13,1.13,0,0,0,34.55,85l.14-1.25a1,1,0,0,1,1.17-.08l.59,1.47Zm15-8c-1,1.64-1.67,7.8-.93,8.29,1.07-.27.92-1.34,1.33-2a.8.8,0,0,1,1,.28l.11,1.71a1.37,1.37,0,0,0,1.57-.39L54.44,77.1ZM60,67.77c-.8-2.31-2-2.71-3.84-1.34-.71,1.95-.69,2,1.48,4.22.5.52,1.26,1,.38,1.81-.76,0-.75-.74-1.08-1.18l-1.17.36a3,3,0,0,0,.65,2.13c2.54.43,3.83-.34,3.61-2.19a3.32,3.32,0,0,0-1.67-2.45,1.47,1.47,0,0,1-.76-1.67C58.44,67.48,59,68.8,60,67.77Zm14.34,9.35v8h4l-.08-1.26-1.7-.08c-.84-.55-.65-1.3-.54-2.08l1.59-.15-.06-1.27-1.57-.16c0-.58-.18-1.09.13-1.59l1.9-.1V77.12ZM68.26,83c.42,2,1.48,2.8,2.78,2.23,1.77-.79,2.07-2.5.75-4-.65-.72-1.65-1.2-1.81-2.37.94-.42,1.64,1,2.52.15.13-.89-.48-1.41-1.07-1.91-2.58-.12-3.32.54-2.94,2.7a3.37,3.37,0,0,0,1.7,2c.68.48,1.23,1,.52,1.89-.83,0-.78-.81-1.21-1.13ZM84,73.84c1.58.14,3,.27,3.63-1.43.6-2.44-2.47-3-2.7-5.06.84-.39.91.35,1.31.55l1.28-.06c-.11-1.86-1.25-2.42-2.76-2s-1.67,1.85-1.11,3.06a9.2,9.2,0,0,0,2,2.18c.59.6.69,1.09-.18,1.42-.56-.24-.66-.74-.9-1.15l-1.32.39ZM69.59,68.92a2,2,0,0,1-.06-1.77h2.26l-.08-1.33H68v8h3.82l-.1-1.38h-2.3a4.33,4.33,0,0,1,.14-2.11l1.52-.1c-.06-.47.17-.89-.2-1.31Zm28.55-3.09H94.48v8H98.1a1.65,1.65,0,0,0-.12-1.4H95.85V70.36l1.63-.16L97.42,69l-1.57-.16A2.27,2.27,0,0,1,96,67.16h2.14ZM43,67.17h2.23a1.59,1.59,0,0,0,0-1.32H41.66v8h3.6a1.66,1.66,0,0,0-.06-1.42H43V70.36l1.58-.14V69L43,68.81Zm11.42-1.32h-4l.07,1.25,1.32.22v7l1.52-.5V67.28l1.16-.19Zm37.27,8V67.29l1.13-.19V65.84H88.91v1.23l1.22.28v6.5Zm-64.25-8v8h3.77l-.06-1.39H29.05V65.82ZM67.24,78.31l-.06-1.2H62.92c0,.53-.22,1.07.21,1.55l1.38.11v6.74L65.83,85V78.83Zm-39.1-1.2.08,1.29,1.38.11v6.61H31V78.55l1.32-.23-.09-1.21Zm10.55-3.27V67.28L40,67.09V65.85H36.11v1.3l1.17.13v6.56Zm41.39-8v8h1.48v-8ZM34.27,73.86v-8a2.08,2.08,0,0,0-1.52.08v7.93ZM47.44,65.8v8.13l1.22-.08v-8Zm39.39-.25c1,.43,1,1.24,1.42,1.93v-2C87.87,65.23,87.5,65.23,86.83,65.55Z"/><path class="cls-3" d="M.31,55.42c.62-.43,1.32-.19,2-.19q55.19,0,110.36,0h1.66V11.29c.34.28.23.66.23,1q0,21.12,0,42.23c0,.24,0,.48-.06.83-.35,0-.69.09-1,.09H.79Z"/><path class="cls-1" d="M93.11,41.72a3.77,3.77,0,0,1,2.15,4.36A3,3,0,0,1,93,48.84a15.62,15.62,0,0,1-5.37,0A14.62,14.62,0,0,1,79.26,44a18.07,18.07,0,0,1-4.05-9.8c-.63-5.69-.16-11.4-.27-17.11a3.56,3.56,0,0,1,3.73-3.82c.24,2.07.64,4.1,3.23,4.5,1.17.49,2.38.14,3.57.21l1.91.9c2,4.32.71,6.16-4.77,6.63.24,4.8-1.1,9.88,3,13.88a6.85,6.85,0,0,0,4.71,1.91C91.19,41.87,92.23,41.24,93.11,41.72Z"/><path class="cls-1" d="M29.11,46a3.52,3.52,0,0,1-3.43,3,3.69,3.69,0,0,1-3.82-2.29,3.76,3.76,0,0,1-.21-1.39c0-11.18,0-22.37,0-33.55,0-1.73.63-3.1,2.15-3.53,1.74-.49,3.64-.44,4.81,1.45a3.57,3.57,0,0,0,.3.38c.06.78.18,1.57.18,2.36Q29.11,29.24,29.11,46Z"/><path class="cls-1" d="M50.68,33.15a26.39,26.39,0,0,1,2.1-7,13.93,13.93,0,0,1,8.38-7.31c2.25-.76,4.62-1.42,7.07-.78a3.6,3.6,0,0,1,2.85,3.84,3.85,3.85,0,0,1-3.84,3.59c-3.39,0-6.3,1.2-7.8,4.37a17.21,17.21,0,0,0-1,10.33V45.6c-.5,1.86-1.52,3.19-3.59,3.35s-3.35-1.09-4.09-3Q50.7,39.58,50.68,33.15Z"/><path class="cls-1" d="M29.66,32.46c2.3-3,4.52-6,6.83-9,1.38-1.75,2.34-3.86,4.16-5.22,1.65-1.23,3.54-.92,5.09.75a3.34,3.34,0,0,1,.15,4.55c-2,2.76-4,5.46-6,8.18-.23.32-.4.67-.61,1,2.39,3.18,4.73,6.3,7.09,9.41,2.09,2.76,1.32,5.57-1.86,6.55a3.25,3.25,0,0,1-3.64-1.11c-2.81-3.62-5.48-7.35-8.2-11C31.72,35.28,30.76,34,29.66,32.46Z"/><path class="cls-3" d="M29.11,46q0-16.78-.05-33.57c0-.79-.12-1.58-.18-2.36.6.1.43.59.43,1q0,17,0,34.08A4.16,4.16,0,0,1,29.11,46Z"/><path class="cls-3" d="M50.68,33.15q0,6.42,0,12.85c-.44,0-.22-.33-.22-.47q0-5.87,0-11.73A2.42,2.42,0,0,1,50.68,33.15Z"/><path class="cls-3" d="M58.38,45.6V40.14A14.74,14.74,0,0,1,58.38,45.6Z"/><path class="cls-3" d="M85.47,18c-1.19-.07-2.4.28-3.57-.21C83.09,17.87,84.3,17.52,85.47,18Z"/><path class="cls-3" d="M93.11,41.72c-.88-.48-1.92.15-2.79-.41C91.24,41.5,92.29,40.84,93.11,41.72Z"/><path class="cls-1" d="M17.87,65.82l.78,4.35.7-4.35h1.42l-1.36,8h-1.3l-.92-4.66-.71,4.47c-.42.39-.88.22-1.39.16l-1.54-8h1.5l.71,4.32.84-4.34Z"/><path class="cls-1" d="M81.38,85.11H80.06v-8l1.23-.06,1.56,4.13V77.14h1.34v8H82.84L81.6,81.76l-.22,0Z"/><path class="cls-1" d="M40.61,80.9V85l-1.25.5V77.15a1.55,1.55,0,0,1,1.29.06L42,80.91V77.13l1.34-.07v8c-.32.29-.72.12-1.2.12Z"/><path class="cls-1" d="M104.5,73.67l-.92.57c-1.29-.94-1-2.52-1.78-3.82-.52,1.19-.07,2.32-.36,3.42H100v-8c1.39.1,3-.58,3.91.92a2.8,2.8,0,0,1-.42,3.59Zm-1.79-4.77c.07-.93.21-1.78-1.1-1.69v2.21Z"/><path class="cls-1" d="M49.41,77.82a16.12,16.12,0,0,1,.23,5.63c-.09,1.58-2.73,2.45-4.21,1.48,0-2.4,0-4.83,0-7.25a4.32,4.32,0,0,1,.07-.53C46.87,77,48.2,76.82,49.41,77.82Zm-2.26,6.23c1.53-1,1.12-2.42,1.15-3.6,0-.81.08-1.75-1.15-2.06Z"/><path class="cls-1" d="M75.32,72.54c1-.29.84-.8.81-1.33l-.68-.33V69.72a4.24,4.24,0,0,1,2.65.15c-.48,1.34-.19,2.62-.36,4.09-1.19-.69-2.56.61-3.87-.78a12.32,12.32,0,0,1-.22-6c.19-1.46,1.42-1.61,2.57-1.4,1.48.26,1.42,1.55,1.62,2.75H76.28c-.32-.38.18-1.48-1-1.32Z"/><path class="cls-1" d="M66.2,73.77a1.29,1.29,0,0,1-1.43.27l-1.2-3.5-.37.06v3.25H61.82v-8c1.29-.11,2.71-.48,3.66.64s.59,2.35,0,3.65S66.06,72.51,66.2,73.77Zm-1.9-6.46c-.49-.11-.82-.23-1.06,0v2A1.12,1.12,0,0,0,64.3,69Z"/><path class="cls-1" d="M57.51,77.09c1.39,0,2.89-.52,3.79.92a3,3,0,0,1-.46,3.68L61.91,85c-.3.56-.8.4-1.3.34-.9-1-.62-2.49-1.69-3.83V85.1l-1.41.08Zm1.42,1.43v2.21c1.3-.39,1.21-1.18,1-2A.93.93,0,0,0,58.93,78.52Z"/><path class="cls-1" d="M8.57,65.8h1.51l.08,1.82c.73-.39.68-1.24,1.25-1.78h1.72c-2.67,2.78-.84,5.34-.05,8H11.51l-1-3-.27,0v3H8.57Z"/><path class="cls-1" d="M37.85,85.13h-1.4l-.59-1.47a1,1,0,0,0-1.17.08L34.55,85a1.13,1.13,0,0,1-1.56.18l1.45-8h1.87Zm-2.35-5c0,.6-1,1.45.32,2Z"/><path class="cls-1" d="M52.82,77.1h1.62l1.48,7.84a1.37,1.37,0,0,1-1.57.39l-.11-1.71a.8.8,0,0,0-1-.28c-.41.71-.26,1.78-1.33,2C51.15,84.9,51.83,78.74,52.82,77.1Zm.58,3L53.17,82C53.93,81.57,53.91,81,53.4,80.12Z"/><path class="cls-1" d="M26.24,72.94l-.16.94H24.63l-.2-1.65a1.47,1.47,0,0,0-1.27-.17L23,73.63c-.48.4-1,.3-1.61.19l1.45-8h1.77c.75,2.27.66,4.73,1.58,7A.33.33,0,0,0,26.24,72.94ZM23.5,70.77a1.29,1.29,0,0,0,.12-2Z"/><path class="cls-1" d="M60,67.77c-1,1-1.56-.29-2.4-.31a1.47,1.47,0,0,0,.76,1.67A3.32,3.32,0,0,1,60,71.58c.22,1.85-1.07,2.62-3.61,2.19a3,3,0,0,1-.65-2.13l1.17-.36c.33.44.32,1.15,1.08,1.18.88-.8.12-1.29-.38-1.81-2.17-2.22-2.19-2.27-1.48-4.22C58,65.06,59.2,65.46,60,67.77Z"/><path class="cls-1" d="M74.34,77.12H78v1.27l-1.9.1c-.31.5-.15,1-.13,1.59l1.57.16.06,1.27L76,81.66c-.11.78-.3,1.53.54,2.08l1.7.08.08,1.26h-4Z"/><path class="cls-1" d="M68.26,83l1.24-.36c.43.32.38,1.17,1.21,1.13.71-.85.16-1.41-.52-1.89a3.37,3.37,0,0,1-1.7-2c-.38-2.16.36-2.82,2.94-2.7.59.5,1.2,1,1.07,1.91-.88.8-1.58-.57-2.52-.15.16,1.17,1.16,1.65,1.81,2.37,1.32,1.46,1,3.17-.75,4C69.74,85.76,68.68,84.93,68.26,83Z"/><path class="cls-1" d="M84,73.84l-.77-2.12,1.32-.39c.24.41.34.91.9,1.15.87-.33.77-.82.18-1.42a9.2,9.2,0,0,1-2-2.18c-.56-1.21-.51-2.63,1.11-3.06s2.65.16,2.76,2l-1.28.06c-.4-.2-.47-.94-1.31-.55.23,2,3.3,2.62,2.7,5.06C87,74.11,85.59,74,84,73.84Z"/><path class="cls-1" d="M69.59,68.92h1.28c.37.42.14.84.2,1.31l-1.52.1a4.33,4.33,0,0,0-.14,2.11h2.3l.1,1.38H68v-8h3.72l.08,1.33H69.53A2,2,0,0,0,69.59,68.92Z"/><path class="cls-1" d="M98.14,65.83v1.33H96a2.27,2.27,0,0,0-.15,1.66l1.57.16.06,1.22-1.63.16v2.09H98a1.65,1.65,0,0,1,.12,1.4H94.48v-8Z"/><path class="cls-1" d="M43,67.17v1.64l1.59.17v1.24L43,70.36v2.08H45.2a1.66,1.66,0,0,1,.06,1.42h-3.6v-8h3.58a1.59,1.59,0,0,1,0,1.32Z"/><path class="cls-1" d="M54.45,65.85l.06,1.24-1.16.19v6.49l-1.52.5v-7l-1.32-.22-.07-1.25Z"/><path class="cls-1" d="M91.72,73.85H90.13v-6.5l-1.22-.28V65.84h3.94V67.1l-1.13.19Z"/><path class="cls-1" d="M27.47,65.82h1.58v6.63h2.13l.06,1.39H27.47Z"/><path class="cls-1" d="M67.24,78.31l-1.41.52V85l-1.32.51V78.77l-1.38-.11c-.43-.48-.25-1-.21-1.55h4.26Z"/><path class="cls-1" d="M28.14,77.11h4.07l.09,1.21L31,78.55v6.57H29.6V78.51l-1.38-.11Z"/><path class="cls-1" d="M38.69,73.84H37.28V67.28l-1.17-.13v-1.3H40v1.24l-1.35.19Z"/><path class="cls-1" d="M80.08,65.8h1.48v8H80.08Z"/><path class="cls-1" d="M34.27,73.86H32.75V65.93a2.08,2.08,0,0,1,1.52-.08Z"/><path class="cls-1" d="M47.44,65.8h1.22v8l-1.22.08Z"/><path class="cls-2" d="M86.83,65.55c.67-.32,1-.32,1.42-.08v2C87.88,66.79,87.83,66,86.83,65.55Z"/><path class="cls-2" d="M26.24,72.94a.33.33,0,0,1,0-.17l.44-1.11C26.8,72.19,27.31,72.83,26.24,72.94Z"/><path class="cls-3" d="M102.71,68.9l-1.1.52V67.21C102.92,67.12,102.78,68,102.71,68.9Z"/><path class="cls-3" d="M47.15,84.05V78.39c1.23.31,1.17,1.25,1.15,2.06C48.27,81.63,48.68,83,47.15,84.05Z"/><path class="cls-3" d="M64.3,67.31V69a1.12,1.12,0,0,1-1.06.35v-2C63.48,67.08,63.81,67.2,64.3,67.31Z"/><path class="cls-3" d="M58.93,78.52a.93.93,0,0,1,1,.2c.21.83.3,1.62-1,2Z"/><path class="cls-3" d="M35.5,80.11l.32,2C34.45,81.56,35.51,80.71,35.5,80.11Z"/><path class="cls-3" d="M53.4,80.12c.51.86.53,1.45-.23,1.91Z"/><path class="cls-3" d="M23.5,70.77l.12-2A1.29,1.29,0,0,1,23.5,70.77Z"/><rect class="cls-3" y="59.79" width="114.58" height="33.33" rx="12"/><path class="cls-4" d="M11.75,75.33l-.95-3.19-.11.18-.1.2v2.81H8.88V67.4h1.71l-.09,2.07.43-.78c.13-.21.25-.44.38-.68s.23-.44.31-.61h1.76l-1.52,3,1.65,4.9Z"/><path class="cls-4" d="M20.05,75.33H18.62l-.76-4c-.13.68-.25,1.36-.37,2s-.24,1.36-.35,2H15.7L14.2,67.4h1.64l.62,4.1c.05-.31.11-.65.17-1s.11-.71.17-1.07L17,68.37c.06-.34.11-.67.16-1h1.41l.69,4.08.58-4.08h1.64Z"/><path class="cls-4" d="M24.79,75.33l-.23-1.66h-1c0,.26-.07.54-.11.84s-.08.58-.12.82H21.6l1.46-7.93h2l1.44,7.93Zm-.56-3.84-.09-.8c0-.26-.06-.57-.1-1,0,.38-.08.7-.11,1l-.09.79c0,.27-.06.49-.08.64h.56C24.29,72,24.27,71.75,24.23,71.49Z"/><path class="cls-4" d="M27.93,75.33V67.4h1.71v6.39h2v1.54Z"/><path class="cls-4" d="M33.4,75.33V67.4h1.72v7.93Z"/><path class="cls-4" d="M39.78,68.94v6.39H38.07V68.94H36.82V67.4H41v1.54Z"/><path class="cls-4" d="M42.62,75.33V67.4h3.86v1.54H44.34v1.52h2V72h-2v1.79h2.31v1.54Z"/><path class="cls-4" d="M48.13,75.33V67.4h1.72v7.93Z"/><path class="cls-4" d="M54.51,68.94v6.39H52.79V68.94H51.55V67.4h4.19v1.54Z"/><path class="cls-4" d="M60.8,74.88a2.33,2.33,0,0,1-1.65.55,1.92,1.92,0,0,1-.84-.18,2,2,0,0,1-.67-.51,2.29,2.29,0,0,1-.45-.78A3.18,3.18,0,0,1,57,73l1.65-.22a1.74,1.74,0,0,0,.05.39,2,2,0,0,0,.1.37.74.74,0,0,0,.17.29.36.36,0,0,0,.26.11.56.56,0,0,0,.38-.12.4.4,0,0,0,.15-.33,1,1,0,0,0-.09-.42,2,2,0,0,0-.25-.4,5.27,5.27,0,0,0-.41-.41l-.55-.46a6.15,6.15,0,0,1-.52-.48,3.57,3.57,0,0,1-.42-.54,2.53,2.53,0,0,1-.28-.63,2.57,2.57,0,0,1-.1-.75,2,2,0,0,1,.57-1.52,2.25,2.25,0,0,1,1.6-.53,1.81,1.81,0,0,1,1.4.59,2.86,2.86,0,0,1,.65,1.62l-1.66.18a1.33,1.33,0,0,0-.15-.6.38.38,0,0,0-.35-.25.37.37,0,0,0-.31.14.62.62,0,0,0-.11.39.72.72,0,0,0,.1.35,1.9,1.9,0,0,0,.25.35,2.57,2.57,0,0,0,.33.33l.33.29a8.06,8.06,0,0,1,.77.71,3.91,3.91,0,0,1,.5.65,2.34,2.34,0,0,1,.26.62,2.67,2.67,0,0,1,.08.64A2,2,0,0,1,60.8,74.88Z"/><path class="cls-4" d="M65.9,75.33,65,72.23h-.31v3.09H63V67.4h2a2.59,2.59,0,0,1,1.86.57,2.42,2.42,0,0,1,.58,1.82,3.6,3.6,0,0,1-.2,1.27,1.5,1.5,0,0,1-.66.76c.09.28.18.57.28.87s.19.59.28.9.19.6.28.9.19.58.27.84Zm-.38-6.24a.69.69,0,0,0-.58-.2h-.27v1.89H65a.65.65,0,0,0,.56-.22,1.39,1.39,0,0,0,.15-.74A1.31,1.31,0,0,0,65.52,69.09Z"/><path class="cls-4" d="M69.28,75.33V67.4h3.86v1.54H71v1.52h2V72H71v1.79h2.31v1.54Z"/><path class="cls-4" d="M78.08,75.33l-.14-.4a1.83,1.83,0,0,1-.57.38,1.74,1.74,0,0,1-.67.12,1.8,1.8,0,0,1-1.42-.58,2.25,2.25,0,0,1-.52-1.55V69.36a2.06,2.06,0,0,1,.16-.84,1.87,1.87,0,0,1,.44-.65,2.06,2.06,0,0,1,.66-.42,2.23,2.23,0,0,1,.83-.15,2.58,2.58,0,0,1,.8.12,1.91,1.91,0,0,1,1.12,1,3.14,3.14,0,0,1,.24,1v.86H77.37v-.43a1.73,1.73,0,0,0-.12-.72.4.4,0,0,0-.4-.26.3.3,0,0,0-.3.17,1.13,1.13,0,0,0-.08.51v3.81c0,.37.13.56.39.56a.44.44,0,0,0,.38-.16.94.94,0,0,0,.13-.58v-.61h-.5V71.11h2.2v4.22Z"/><path class="cls-4" d="M80.56,75.33V67.4h1.71v7.93Z"/><path class="cls-4" d="M87.56,74.88a2.33,2.33,0,0,1-1.65.55,2,2,0,0,1-1.51-.69A2.66,2.66,0,0,1,84,74a3.18,3.18,0,0,1-.19-1l1.65-.22a2.6,2.6,0,0,0,0,.39,2,2,0,0,0,.1.37.89.89,0,0,0,.17.29.36.36,0,0,0,.26.11.61.61,0,0,0,.39-.12.42.42,0,0,0,.14-.33,1,1,0,0,0-.09-.42,2,2,0,0,0-.25-.4,5.27,5.27,0,0,0-.41-.41c-.16-.14-.34-.3-.55-.46s-.36-.32-.52-.48a3.57,3.57,0,0,1-.42-.54,2.54,2.54,0,0,1-.38-1.38,2,2,0,0,1,.57-1.52,2.27,2.27,0,0,1,1.6-.53,1.8,1.8,0,0,1,1.4.59,2.79,2.79,0,0,1,.66,1.62l-1.67.18a1.47,1.47,0,0,0-.14-.6.4.4,0,0,0-.36-.25.38.38,0,0,0-.31.14.62.62,0,0,0-.11.39.72.72,0,0,0,.1.35,2.53,2.53,0,0,0,.25.35q.15.17.33.33l.33.29a8.06,8.06,0,0,1,.77.71,3.91,3.91,0,0,1,.5.65,2.34,2.34,0,0,1,.26.62,2.67,2.67,0,0,1,.08.64A2,2,0,0,1,87.56,74.88Z"/><path class="cls-4" d="M92.44,68.94v6.39H90.72V68.94H89.48V67.4h4.19v1.54Z"/><path class="cls-4" d="M95.28,75.33V67.4h3.86v1.54H97v1.52h2V72H97v1.79H99.3v1.54Z"/><path class="cls-4" d="M103.8,75.33l-.91-3.1h-.31v3.09h-1.71V67.4h2a2.55,2.55,0,0,1,1.85.57,2.43,2.43,0,0,1,.59,1.82,3.37,3.37,0,0,1-.21,1.27,1.44,1.44,0,0,1-.65.76q.14.42.27.87c.1.29.19.59.29.9s.19.6.28.9.18.58.27.84Zm-.38-6.24a.68.68,0,0,0-.58-.2h-.26v1.89h.3a.63.63,0,0,0,.55-.22,1.39,1.39,0,0,0,.15-.74A1.23,1.23,0,0,0,103.42,69.09Z"/><path class="cls-4" d="M31.58,79.94v6.39H29.86V79.94H28.62V78.4h4.19v1.54Z"/><path class="cls-4" d="M36.35,86.33l-.23-1.66h-1c0,.26-.07.54-.11.84s-.08.58-.12.82H33.16l1.46-7.93h2L38,86.33Zm-.56-3.84-.09-.8c0-.26-.06-.57-.1-1,0,.38-.08.7-.11,1l-.09.79c0,.27-.06.49-.08.64h.56C35.85,83,35.83,82.75,35.79,82.49Z"/><path class="cls-4" d="M42.47,86.33,41.16,82.6v3.73H39.57V78.4h1.55l1.25,3.4V78.4H44v7.93Z"/><path class="cls-4" d="M49.32,85.7a2.17,2.17,0,0,1-1.74.63H45.49V78.4h2.17a2.06,2.06,0,0,1,1.65.64,2.71,2.71,0,0,1,.56,1.83v3A2.69,2.69,0,0,1,49.32,85.7Zm-1.16-5a1,1,0,0,0-.15-.65.72.72,0,0,0-.57-.17H47.2v5h.24a.74.74,0,0,0,.56-.18.87.87,0,0,0,.16-.58Z"/><path class="cls-4" d="M54.18,86.33,54,84.67h-1q-.06.39-.12.84c0,.31-.08.58-.12.82H51l1.46-7.93h2l1.44,7.93Zm-.55-3.84c0-.27-.07-.54-.1-.8s-.06-.57-.1-1c0,.38-.08.7-.11,1l-.09.79c0,.27-.06.49-.08.64h.56C53.69,83,53.66,82.75,53.63,82.49Z"/><path class="cls-4" d="M60.43,86.33l-.91-3.1h-.31v3.09H57.5V78.4h2a2.59,2.59,0,0,1,1.86.57,2.42,2.42,0,0,1,.58,1.82,3.39,3.39,0,0,1-.2,1.27,1.44,1.44,0,0,1-.65.76c.08.28.18.57.27.87s.19.59.29.9.19.6.28.9.18.58.27.84Zm-.38-6.24a.69.69,0,0,0-.58-.2h-.26v1.89h.29a.64.64,0,0,0,.56-.22,1.39,1.39,0,0,0,.15-.74A1.23,1.23,0,0,0,60.05,80.09Z"/><path class="cls-4" d="M66.26,79.94v6.39H64.54V79.94H63.3V78.4h4.19v1.54Z"/><path class="cls-4" d="M72.55,85.88a2.33,2.33,0,0,1-1.65.55,2,2,0,0,1-.85-.18,2,2,0,0,1-.66-.51,2.29,2.29,0,0,1-.45-.78,3.18,3.18,0,0,1-.2-1l1.65-.22c0,.13,0,.26,0,.39a2,2,0,0,0,.11.37.74.74,0,0,0,.17.29.35.35,0,0,0,.26.11.56.56,0,0,0,.38-.12.4.4,0,0,0,.15-.33,1,1,0,0,0-.09-.42,2.08,2.08,0,0,0-.26-.4,5,5,0,0,0-.4-.41l-.55-.46a6.15,6.15,0,0,1-.52-.48,3.57,3.57,0,0,1-.42-.54A2.53,2.53,0,0,1,69,81.1a2.57,2.57,0,0,1-.1-.75,2,2,0,0,1,.56-1.52,2.29,2.29,0,0,1,1.6-.53,1.83,1.83,0,0,1,1.41.59,2.86,2.86,0,0,1,.65,1.62l-1.66.18a1.33,1.33,0,0,0-.15-.6.38.38,0,0,0-.36-.25.36.36,0,0,0-.3.14.57.57,0,0,0-.11.39.72.72,0,0,0,.1.35,1.82,1.82,0,0,0,.24.35q.15.17.33.33l.34.29a9.48,9.48,0,0,1,.77.71,3.82,3.82,0,0,1,.49.65,2.09,2.09,0,0,1,.27.62,2.67,2.67,0,0,1,.07.64A2.06,2.06,0,0,1,72.55,85.88Z"/><path class="cls-4" d="M75,86.33V78.4h3.86v1.54H76.7v1.52h2V83h-2v1.79H79v1.54Z"/><path class="cls-4" d="M83.39,86.33,82.08,82.6v3.73H80.49V78.4H82l1.25,3.4V78.4h1.58v7.93Z"/></g></g></svg>