<svg xmlns="http://www.w3.org/2000/svg" viewBox="0 0 510.61 246.98"><defs><style>.cls-1{opacity:0.05;}.cls-2{fill:#4d4d4d;}</style></defs><title>logo-grey_1</title><g id="Layer_2" data-name="Layer 2"><g id="Layer_1-2" data-name="Layer 1"><g class="cls-1"><path d="M216.79,186.66q-.61,3.17-1.2,6.32-1,5.34-1.91,10.69c-1.81,10.3-2.11,22.21-6.73,31.56-11.11-12.09-16.49-26.55-19-42.25q-.69-4.26-1.12-8.63c-.16-1.64-.3-3.28-.45-4.92a32.87,32.87,0,0,1-9.74,6.45c.32,2.37.65,4.74,1,7.1.5,3.29,1,6.58,1.61,9.85,2.53,14.21,7.37,27.93,18,38.56,3.93,3.93,8.37,7.2,14.47,4.74s7.7-7.78,8.58-13.52c2-13.2,3.69-26.48,6-39.63q.42-2.41.87-4.83A18.29,18.29,0,0,1,216.79,186.66Z"/><path d="M300.42,185.77q-.6,3.61-1.33,7.21a191.33,191.33,0,0,1-4.92,19.18c-2.74,8.71-6.15,17.22-15.29,23.48-1.66-12.28-2.52-23.3-4.77-34-.6-2.88-1.24-5.77-1.89-8.65-.49-2.13-1-4.26-1.53-6.39a21,21,0,0,1-10.61,1l-1.3.07c.34,1.78.69,3.56,1,5.34q3.52,19,6.79,38.08c1.09,6.43,2.14,12.63,9.07,15.12,6.59,2.36,11.86-1.42,15.11-6.16,5.24-7.64,10.44-15.73,13.44-24.4a167,167,0,0,0,6-22.64c.32-1.61.6-3.23.87-4.85C307.21,189.37,302.81,189.08,300.42,185.77Z"/><path d="M162.54,99.2c.82,1.44,1.67,2.87,2.6,4.28a46,46,0,0,1,7.33,21.63,2.64,2.64,0,0,1,.44-.23,44.25,44.25,0,0,1,10.3-3.15c-1-8.4-4.17-15.82-8.37-23C170.74,98.87,166.64,99,162.54,99.2Z"/><path d="M323.4,43c.05.32.09.64.13,1q.3,2.33.48,4.62a5.25,5.25,0,0,1,1.84-.32H335l.42,0a1.7,1.7,0,0,0,0-.22c-.09-1.38-.21-2.75-.37-4.1-2-17.45-9.52-31.85-26.95-39.65-14.47-6.48-29.27-5.45-43,1.52-15.1,7.65-29.24,7.72-44.19-.16a46.12,46.12,0,0,0-29.18-5C168.77,4.44,154.53,20.23,151.88,44c-.15,1.41-.26,2.86-.33,4.32l.26,0c1.06,0,2.15.13,3.25.23,2.36-.17,4.74-.23,7.14-.23.13,0,.24,0,.37,0,.15-1.44.32-2.89.54-4.34s.45-2.77.72-4.17c4.26-21.62,23.29-32.54,44.49-26.48a54,54,0,0,1,10,3.59c16.89,8.76,33.4,7.83,50.55.11,7.16-3.23,15.74-5.32,23.48-4.83C309.48,13.29,321,25.65,323.4,43Z"/><path d="M312.66,98h-.2a68.86,68.86,0,0,0-8.81,36.24q.09,4,.07,8c.47-.68.93-1.36,1.38-2l0-.07a8.37,8.37,0,0,1,.94-1.66c.06-.08.13-.15.19-.22l.25-.42a39.82,39.82,0,0,1,7.89-11.11,48.92,48.92,0,0,1,8-24.1c1-1.47,1.85-3,2.69-4.45C321,98.36,316.84,98,312.66,98Z"/><path d="M182.57,47.86l2.57.09a5.43,5.43,0,0,1,1.94-.07c.58.08,1.15.14,1.73.2,1.05.05,2.09.11,3.14.21a25,25,0,0,1,3.35-7.91c2.55-3.9,8.39-12.75-.73-13.22l-.23,0c-5.66-.08-10.09,6.82-11.56,11.6A60.5,60.5,0,0,0,180.71,48c.12,0,.25,0,.37,0A5.38,5.38,0,0,1,182.57,47.86Z"/></g><path d="M38.11,73.39c0,23.31-18.43,23.31-25.35,23.31H0V50.61H12.14C18.7,50.61,38.11,50.61,38.11,73.39Zm-12.4,0c0-11.34-7.81-11.34-13.39-11.34h-.27V85.27h.89C18.79,85.27,25.71,85.27,25.71,73.39Z"/><path d="M58.32,62.05v6.11H73.75V79H58.32v6.29H78.89V96.7H46.27V50.61H78.89V62.05Z"/><path d="M125.16,50.61V96.7h-12L99.45,73.92V96.7h-12V50.61h12L113.1,73.3V50.61Z"/><path d="M166.29,62.13H156V96.7H144V62.13H133.67V50.61h32.62Z"/><path d="M196,92.36H181.09l-1.15,4.34h-12.5l13.47-46.09h15.34L209.63,96.7h-12.5Zm-2.83-10.55-4.61-17.73-4.7,17.73Z"/><path d="M241.63,85.18V96.7h-25.7V50.61h12V85.18Z"/><path d="M261.71,74.2c0-13.74,9.93-24,23-24a24.45,24.45,0,0,1,12.67,3.28l-6.29,10.1a11.42,11.42,0,0,0-5.76-1.51c-6.83,0-11.17,5.32-11.17,12.06s4.43,11.52,11,11.52a12.2,12.2,0,0,0,6.74-2.12l6.29,9.92a23.86,23.86,0,0,1-13.38,4.08C271,97.51,261.71,87.85,261.71,74.2Z"/><path d="M315.25,62.23v6.12h15.42V79.16H315.25v6.29h20.57V96.89H303.2V50.8h32.62V62.23Z"/><path d="M382.08,50.8V96.89h-12L356.38,74.11V96.89H344.33V50.8h12.05L370,73.49V50.8Z"/><path d="M423.21,62.32H412.93V96.89H400.88V62.32H390.6V50.8h32.61Z"/><path d="M457.43,96.89l-8.6-13h-5.05v13H431.72V50.8h13.92c9.75,0,24.2,0,24.2,16.48,0,8.51-4,12.59-9.13,14.63l10.46,15ZM449,73.22c4.52,0,8.42,0,8.42-5.58s-4.17-5.5-8.42-5.5h-5.23V73.22Z"/><path d="M490.05,62.23v6.12h15.42V79.16H490.05v6.29h20.56V96.89H478V50.8h32.61V62.23Z"/><path class="cls-2" d="M144,85c-7.26,4.5-22,18.21-41.38,42.07-13.83,17.06-30.43,39.19-40.81,55.79-1.38,2.07-2.07,3-2.53,3-1.5,0-8.19-9.69-8.19-18,0-18.9,28.82-54.4,28.82-63.16,0-1-.35-2-1.15-2-7.73,0-26.63,22.94-26.63,35.73,0,1.85,1,2.08,1,2.42s-.12.81-.92.81c-1.73,0-9.34-4.84-9.34-12.56,0-14.87,18-34.81,31.7-34.81,3.69,0,5.53,1.72,7.6,1.72,4.73,0,9,5.19,9,12.22,0,15.79-23.4,46.92-27.67,58.44l.35.69a576.47,576.47,0,0,1,37.23-49.33c17.63-20.86,35.73-39.19,43.8-39.19,2.54,0,4.15.92,4.15,2.31S146.25,83.61,144,85Z"/><path class="cls-2" d="M153.86,157.38C148,169,138.41,173.86,131.15,173.86h-.92c-6,6.57-13,11.18-20.52,11.18-9.68,0-16.14-5.42-16.14-16.48,0-16.83,16.83-43,35.51-43,3.34,0,6.1,1.5,9.33,1.5,5.42,0,7.49,4.61,7.49,9.22,0,8.3-3.34,18.79-8.76,28a6.13,6.13,0,0,0,2,.46c6.69,0,11.65-11.41,13.26-11.41.92,0,1.73,1.5,1.73,3A2.39,2.39,0,0,1,153.86,157.38Zm-19.94-23.86c-9.11,0-23.75,19.94-23.75,33.65,0,3.92,1.39,6.69,5,6.69a10.85,10.85,0,0,0,6.22-2.42,8.6,8.6,0,0,1-4.61-7.38,7.44,7.44,0,0,1,7.73-7.72,10.3,10.3,0,0,1,6.8,3c4.15-7.27,6.91-15.33,6.91-20C138.18,136.51,137.26,133.52,133.92,133.52Z"/><path class="cls-2" d="M208.15,157.38c-5.88,11.64-15.45,16.48-22.71,16.48h-.92c-6,6.57-13,11.18-20.52,11.18-9.68,0-16.14-5.42-16.14-16.48,0-16.83,16.83-43,35.5-43,3.35,0,6.11,1.5,9.34,1.5,5.42,0,7.49,4.61,7.49,9.22,0,8.3-3.34,18.79-8.76,28a6.07,6.07,0,0,0,2,.46c6.69,0,11.64-11.41,13.26-11.41.92,0,1.73,1.5,1.73,3A2.39,2.39,0,0,1,208.15,157.38Zm-19.94-23.86c-9.11,0-23.75,19.94-23.75,33.65,0,3.92,1.38,6.69,5,6.69a10.85,10.85,0,0,0,6.22-2.42,8.58,8.58,0,0,1-4.61-7.38,7.44,7.44,0,0,1,7.72-7.72,10.26,10.26,0,0,1,6.8,3c4.15-7.27,6.92-15.33,6.92-20C192.47,136.51,191.55,133.52,188.21,133.52Z"/><path class="cls-2" d="M225.2,184.46c-7.26,0-12.91-4.26-12.91-12.56,0-11.3,15.56-32,15.56-32.39a14.37,14.37,0,0,0-5.76-1.84c-.46,0-.81.11-.92.34-5.65,9.22-11.3,17.64-15.33,23.4a1.62,1.62,0,0,1-1.27.92c-1,0-1.73-1.38-1.73-3.46a6.14,6.14,0,0,1,1-2.53,95.55,95.55,0,0,0,7.61-13.26c3.46-6.91,4.15-11.87,6.34-17.06,2.3-5.76,4-6.91,7.83-6.91,1.73,0,2.66,1,2.66,3,0,2.31-1.16,3.23-1.16,3.58s.69.81,2.54.81c5.42,0,11.87-.93,13.48-.93,3.23,0,7.5,6.34,7.5,9,0,2.08-3.58,3.92-6.11,6.8-4.38,4.73-16.25,21.44-16.25,30.43a1.59,1.59,0,0,0,1.61,1.73c2.88,0,8.07-4.49,12-9.33,4.38-5.31,8.07-11.07,8.64-11.07,1,0,1.5,2.08,1.5,4.15S235.23,184.46,225.2,184.46Z"/><path class="cls-2" d="M261.16,184.46c-7.83,0-15.67-3.92-15.67-18.9,0-5.19,8.53-20.4,17.52-35.39,9.8-16.36,19-32.27,24.66-32.27,3.12,0,7.73,2.19,7.73,3.8s-5.3,8.88-8.3,13.83-7.38,12.57-7.38,13l.23.12a18.51,18.51,0,0,1,8.53-2.43c6.34,0,10.84,4.61,10.84,13.72C299.32,157.15,283.53,184.46,261.16,184.46ZM283,132.59c-4,0-7.49,4.38-9.22,6.23s-16.49,29.51-16.49,34.58c0,2,1.16,3.57,4,3.57,9.11,0,26.16-27.32,26.16-39C287.44,135.82,286,132.59,283,132.59Z"/><path class="cls-2" d="M333.09,184.58a10.44,10.44,0,0,1-10.61-10.26,10.82,10.82,0,0,1,.12-2.19c-1.85,2.65-10.72,12.56-16,12.56s-10.49-6.68-10.49-13.25c0-14.06,18-43.11,23.86-45.53a15,15,0,0,1,3-.23c2.88,0,6.91.57,6.91,2.53a1.8,1.8,0,0,1-.35.93c-2.42,4.61-19.71,34.81-19.71,42.76,0,1.73.7,2.42,1.62,2.42,2.65,0,12.1-10.37,18.67-21.55,5.76-9.57,13.26-26.75,15.79-26.75,5.65,0,9.92,2,9.92,4,0,3.11-1.85,6-3.35,9.1s-14.64,26.63-14.64,31.59c0,1.38.35,2.42,2.77,2.42,5.88,0,18.56-20.64,19.48-20.64,1.15,0,1.5,2,1.5,3.92C361.56,159.8,344.38,184.58,333.09,184.58Z"/><path class="cls-2" d="M378.5,184.46c-7.26,0-12.91-4.26-12.91-12.56,0-11.3,15.56-32,15.56-32.39a14.37,14.37,0,0,0-5.76-1.84c-.46,0-.81.11-.92.34-5.65,9.22-11.3,17.64-15.33,23.4a1.62,1.62,0,0,1-1.27.92c-1,0-1.73-1.38-1.73-3.46a6.14,6.14,0,0,1,1-2.53,94.75,94.75,0,0,0,7.6-13.26c3.46-6.91,4.15-11.87,6.34-17.06,2.31-5.76,4-6.91,7.84-6.91,1.73,0,2.65,1,2.65,3,0,2.31-1.15,3.23-1.15,3.58s.69.81,2.54.81c5.41,0,11.87-.93,13.48-.93,3.23,0,7.49,6.34,7.49,9,0,2.08-3.57,3.92-6.1,6.8-4.38,4.73-16.26,21.44-16.26,30.43a1.6,1.6,0,0,0,1.62,1.73c2.88,0,8.07-4.49,12-9.33,4.38-5.31,8.06-11.07,8.64-11.07,1,0,1.5,2.08,1.5,4.15S388.53,184.46,378.5,184.46Z"/><path class="cls-2" d="M444.55,172.82c-9.92,20.63-21.67,49.68-42,49.68-10.37,0-19-6-19-15.33,0-11.3,10.26-19.83,19.25-19.83,5.3,0,8.3,3.35,8.3,6.81,0,3.68-2.88,6.1-3.34,6.1-.23,0-.23-.11-.23-.23v-.92c0-1.38-2.42-2.3-5.54-2.3-7,0-11.52,4.95-11.52,9.33,0,4.84,3.69,7.5,7.83,7.5,9.69,0,16.72-12.8,20.18-19.72A93.84,93.84,0,0,0,425,178.35c-3.69,4.27-7.72,6-11.53,6-7.49,0-13.94-7.38-13.94-16.6,0-22.59,24.32-42.42,39.19-42.42,5.53,0,9.68,2.77,10.83,9.11.58-.69,4.61-6.23,5.88-6.92a8.53,8.53,0,0,1,4-.69h1.39c1.61,0,4.95.92,4.95,2.54C465.75,132,454.34,152.19,444.55,172.82Zm-5.31-39.3c-10.6,0-25.35,23.28-25.35,33.42,0,3.46,1.61,6.46,4.84,6.46,8.07,0,24.55-27.32,24.55-33.89C443.28,135.94,442.36,133.52,439.24,133.52Z"/></g></g></svg>