<svg xmlns="http://www.w3.org/2000/svg" viewBox="0 0 519.12 185.76"><defs><style>.cls-1{font-size:73.84px;font-family:Filicudi-Solid, Filicudi;}.cls-1,.cls-2{fill:#fff;}</style></defs><title>logo-white</title><g id="Layer_2" data-name="Layer 2"><g id="Layer_1-2" data-name="Layer 1"><text class="cls-1" transform="translate(0 59.96)">Dental</text><text class="cls-1" transform="translate(262.07 60.15)">Centre</text><path class="cls-2" d="M148.2,48.25c-7.26,4.5-22,18.21-41.38,42.07C93,107.38,76.39,129.51,66,146.11c-1.38,2.08-2.08,3-2.54,3-1.5,0-8.18-9.68-8.18-18,0-18.91,28.81-54.41,28.81-63.17,0-1-.34-2-1.15-2-7.72,0-26.62,22.94-26.62,35.73,0,1.85,1,2.08,1,2.42s-.11.81-.92.81c-1.73,0-9.34-4.84-9.34-12.56,0-14.87,18-34.81,31.7-34.81,3.69,0,5.54,1.73,7.61,1.73,4.73,0,9,5.18,9,12.21,0,15.8-23.4,46.92-27.66,58.44l.34.7a576.94,576.94,0,0,1,37.23-49.34c17.64-20.86,35.74-39.19,43.8-39.19,2.54,0,4.15.92,4.15,2.31S150.51,46.87,148.2,48.25Z"/><path class="cls-2" d="M158.11,120.64c-5.88,11.64-15.44,16.48-22.7,16.48h-.93c-6,6.57-13,11.18-20.51,11.18-9.69,0-16.14-5.42-16.14-16.48,0-16.83,16.83-43,35.5-43,3.34,0,6.11,1.5,9.34,1.5,5.42,0,7.49,4.61,7.49,9.22,0,8.3-3.34,18.79-8.76,28a6.07,6.07,0,0,0,2,.46C150,128,155,116.6,156.61,116.6c.93,0,1.73,1.5,1.73,3A2.25,2.25,0,0,1,158.11,120.64ZM138.17,96.78c-9.1,0-23.74,19.94-23.74,33.65,0,3.92,1.38,6.69,4.95,6.69a10.87,10.87,0,0,0,6.23-2.42,8.58,8.58,0,0,1-4.61-7.38,7.43,7.43,0,0,1,7.72-7.72,10.26,10.26,0,0,1,6.8,3c4.15-7.27,6.92-15.33,6.92-19.94C142.44,99.77,141.52,96.78,138.17,96.78Z"/><path class="cls-2" d="M212.4,120.64c-5.88,11.64-15.44,16.48-22.71,16.48h-.92c-6,6.57-13,11.18-20.51,11.18-9.69,0-16.14-5.42-16.14-16.48,0-16.83,16.83-43,35.5-43,3.34,0,6.11,1.5,9.34,1.5,5.41,0,7.49,4.61,7.49,9.22,0,8.3-3.34,18.79-8.76,28a6.07,6.07,0,0,0,2,.46c6.68,0,11.64-11.41,13.25-11.41.92,0,1.73,1.5,1.73,3A2.25,2.25,0,0,1,212.4,120.64ZM192.46,96.78c-9.11,0-23.74,19.94-23.74,33.65,0,3.92,1.38,6.69,4.95,6.69a10.87,10.87,0,0,0,6.23-2.42,8.58,8.58,0,0,1-4.61-7.38A7.43,7.43,0,0,1,183,119.6a10.26,10.26,0,0,1,6.8,3c4.15-7.27,6.92-15.33,6.92-19.94C196.73,99.77,195.8,96.78,192.46,96.78Z"/><path class="cls-2" d="M229.46,147.72c-7.26,0-12.91-4.26-12.91-12.56,0-11.3,15.56-32,15.56-32.39a14.37,14.37,0,0,0-5.76-1.84c-.46,0-.81.11-.93.34-5.64,9.22-11.29,17.64-15.33,23.4a1.59,1.59,0,0,1-1.26.92c-1,0-1.73-1.38-1.73-3.45a6.31,6.31,0,0,1,1-2.54,94.5,94.5,0,0,0,7.61-13.26c3.46-6.91,4.15-11.87,6.34-17,2.31-5.77,4-6.92,7.84-6.92,1.73,0,2.65,1,2.65,3,0,2.3-1.15,3.22-1.15,3.57s.69.81,2.53.81c5.42,0,11.88-.93,13.49-.93,3.23,0,7.49,6.34,7.49,9,0,2.08-3.57,3.92-6.11,6.81-4.38,4.72-16.25,21.43-16.25,30.42a1.59,1.59,0,0,0,1.61,1.73c2.89,0,8.07-4.49,12-9.33,4.38-5.3,8.07-11.07,8.65-11.07,1,0,1.5,2.08,1.5,4.15S239.49,147.72,229.46,147.72Z"/><path class="cls-2" d="M265.42,147.72c-7.84,0-15.68-3.91-15.68-18.9,0-5.19,8.53-20.4,17.52-35.39,9.8-16.36,19-32.27,24.67-32.27,3.11,0,7.72,2.19,7.72,3.8s-5.3,8.88-8.3,13.84S284,91.36,284,91.82l.23.12a18.43,18.43,0,0,1,8.53-2.42c6.34,0,10.83,4.61,10.83,13.71C303.57,120.41,287.78,147.72,265.42,147.72ZM287.2,95.85c-4,0-7.49,4.38-9.22,6.23s-16.48,29.51-16.48,34.58c0,2,1.15,3.57,4,3.57,9.11,0,26.17-27.32,26.17-39C291.7,99.08,290.2,95.85,287.2,95.85Z"/><path class="cls-2" d="M337.34,147.84a10.43,10.43,0,0,1-10.6-10.26,11.79,11.79,0,0,1,.11-2.19C325,138,316.13,148,310.83,148s-10.49-6.68-10.49-13.25c0-14.06,18-43.11,23.86-45.53a15.11,15.11,0,0,1,3-.23c2.88,0,6.92.58,6.92,2.54a1.87,1.87,0,0,1-.35.92c-2.42,4.61-19.71,34.81-19.71,42.76,0,1.73.69,2.42,1.61,2.42,2.65,0,12.11-10.37,18.68-21.55,5.76-9.57,13.25-26.74,15.79-26.74,5.65,0,9.91,1.95,9.91,4,0,3.11-1.84,6-3.34,9.11S342.07,129.05,342.07,134c0,1.38.35,2.42,2.77,2.42,5.87,0,18.55-20.63,19.48-20.63,1.15,0,1.49,2,1.49,3.91C365.81,123.06,348.64,147.84,337.34,147.84Z"/><path class="cls-2" d="M382.76,147.72c-7.27,0-12.91-4.26-12.91-12.56,0-11.3,15.56-32,15.56-32.39a14.43,14.43,0,0,0-5.77-1.84c-.46,0-.8.11-.92.34-5.65,9.22-11.29,17.64-15.33,23.4a1.59,1.59,0,0,1-1.27.92c-1,0-1.72-1.38-1.72-3.45a6.31,6.31,0,0,1,1-2.54A94.5,94.5,0,0,0,369,106.34c3.46-6.91,4.15-11.87,6.34-17,2.31-5.77,4-6.92,7.84-6.92,1.73,0,2.65,1,2.65,3,0,2.3-1.15,3.22-1.15,3.57s.69.81,2.53.81c5.42,0,11.87-.93,13.49-.93,3.23,0,7.49,6.34,7.49,9,0,2.08-3.57,3.92-6.11,6.81-4.38,4.72-16.25,21.43-16.25,30.42a1.59,1.59,0,0,0,1.61,1.73c2.88,0,8.07-4.49,12-9.33,4.38-5.3,8.07-11.07,8.64-11.07,1,0,1.5,2.08,1.5,4.15S392.78,147.72,382.76,147.72Z"/><path class="cls-2" d="M448.8,136.08c-9.91,20.63-21.67,49.68-42,49.68-10.37,0-19-6-19-15.33,0-11.29,10.25-19.82,19.25-19.82,5.3,0,8.29,3.34,8.29,6.8,0,3.69-2.88,6.11-3.34,6.11-.23,0-.23-.12-.23-.23v-.93c0-1.38-2.42-2.3-5.53-2.3-7,0-11.53,4.95-11.53,9.33,0,4.85,3.69,7.5,7.84,7.5,9.68,0,16.71-12.8,20.17-19.71a94.61,94.61,0,0,0,6.46-15.56c-3.69,4.26-7.73,6-11.53,6-7.49,0-13.95-7.38-13.95-16.6,0-22.59,24.32-42.42,39.19-42.42,5.54,0,9.68,2.77,10.84,9.11.57-.69,4.61-6.22,5.88-6.92a8.51,8.51,0,0,1,4-.69h1.38c1.62,0,5,.92,5,2.54C470,95.28,458.6,115.45,448.8,136.08Zm-5.3-39.3c-10.61,0-25.36,23.28-25.36,33.42,0,3.46,1.61,6.46,4.84,6.46,8.07,0,24.55-27.32,24.55-33.89C447.53,99.2,446.61,96.78,443.5,96.78Z"/></g></g></svg>