<svg xmlns="http://www.w3.org/2000/svg" viewBox="0 0 519.12 246.98"><defs><style>.cls-1{fill:#b3b3b3;}.cls-2{font-size:73.84px;font-family:Filicudi-Solid, Filicudi;}.cls-2,.cls-3{fill:#fff;}</style></defs><title>logo-white</title><g id="Layer_2" data-name="Layer 2"><g id="Layer_1-2" data-name="Layer 1"><path class="cls-1" d="M221.05,186.66q-.62,3.17-1.2,6.32-1,5.34-1.91,10.69c-1.82,10.3-2.11,22.21-6.73,31.56-11.11-12.09-16.49-26.55-19-42.25-.46-2.84-.82-5.72-1.11-8.63q-.24-2.46-.45-4.92a33.13,33.13,0,0,1-9.74,6.45c.32,2.37.65,4.74,1,7.1.49,3.29,1,6.58,1.61,9.85,2.53,14.21,7.36,27.93,18,38.56,3.93,3.93,8.36,7.2,14.47,4.74s7.7-7.78,8.58-13.52c2-13.2,3.69-26.48,6-39.63.28-1.61.57-3.22.86-4.83A18.27,18.27,0,0,1,221.05,186.66Z"/><path class="cls-1" d="M304.67,185.77q-.6,3.61-1.33,7.21a188.66,188.66,0,0,1-4.92,19.18c-2.74,8.71-6.15,17.22-15.28,23.48-1.67-12.28-2.52-23.3-4.77-34-.61-2.88-1.24-5.77-1.9-8.65q-.74-3.19-1.52-6.39a21,21,0,0,1-10.62,1l-1.29.07c.33,1.78.68,3.56,1,5.34q3.52,19,6.8,38.08c1.08,6.43,2.13,12.63,9.07,15.12,6.59,2.36,11.86-1.42,15.11-6.16,5.24-7.64,10.44-15.73,13.43-24.4a167,167,0,0,0,6-22.64c.31-1.61.6-3.23.87-4.85C311.46,189.37,307.07,189.08,304.67,185.77Z"/><path class="cls-1" d="M166.8,99.2c.81,1.44,1.66,2.87,2.59,4.28a45.88,45.88,0,0,1,7.33,21.63,2.38,2.38,0,0,1,.45-.23,44.1,44.1,0,0,1,10.3-3.15c-1-8.4-4.17-15.82-8.38-23C175,98.87,170.9,99,166.8,99.2Z"/><path class="cls-1" d="M327.66,43c0,.32.08.64.13,1,.2,1.55.35,3.09.48,4.62a5.25,5.25,0,0,1,1.84-.32h9.13l.43,0c0-.07,0-.14,0-.22-.09-1.38-.22-2.75-.37-4.1-2-17.45-9.52-31.85-27-39.65-14.48-6.48-29.28-5.45-43,1.52-15.09,7.65-29.24,7.72-44.18-.16A46.12,46.12,0,0,0,196,.7C173,4.44,158.79,20.23,156.14,44c-.16,1.41-.26,2.86-.34,4.32l.27,0c1.06,0,2.15.13,3.24.23,2.37-.17,4.74-.23,7.14-.23.13,0,.25,0,.37,0,.15-1.44.32-2.89.54-4.34s.45-2.77.73-4.17c4.25-21.62,23.28-32.54,44.49-26.48a54.29,54.29,0,0,1,10,3.59c16.88,8.76,33.4,7.83,50.55.11,7.16-3.23,15.74-5.32,23.48-4.83C313.74,13.29,325.21,25.65,327.66,43Z"/><path class="cls-1" d="M316.91,98h-.2a68.85,68.85,0,0,0-8.8,36.24q.07,4,.07,8c.46-.68.93-1.36,1.38-2l0-.07a9,9,0,0,1,1-1.66l.18-.22.25-.42a39.86,39.86,0,0,1,7.9-11.11,48.92,48.92,0,0,1,8-24.1c1-1.47,1.84-3,2.69-4.45C325.25,98.36,321.1,98,316.91,98Z"/><path class="cls-1" d="M186.82,47.86l2.57.09a5.47,5.47,0,0,1,2-.07c.57.08,1.15.14,1.72.2,1.05.05,2.1.11,3.15.21a25,25,0,0,1,3.35-7.91c2.55-3.9,8.39-12.75-.74-13.22l-.22,0c-5.66-.08-10.09,6.82-11.56,11.6A59.34,59.34,0,0,0,185,48c.12,0,.24,0,.37,0A5.35,5.35,0,0,1,186.82,47.86Z"/><text class="cls-2" transform="translate(0 96.7)">Dental</text><text class="cls-2" transform="translate(262.07 96.89)">Centre</text><path class="cls-3" d="M148.2,85c-7.26,4.5-22,18.21-41.38,42.07C93,144.12,76.39,166.25,66,182.85c-1.38,2.07-2.08,3-2.54,3-1.5,0-8.18-9.69-8.18-18,0-18.9,28.81-54.4,28.81-63.16,0-1-.34-2-1.15-2-7.72,0-26.62,22.94-26.62,35.73,0,1.85,1,2.08,1,2.42s-.11.81-.92.81c-1.73,0-9.34-4.84-9.34-12.56,0-14.87,18-34.81,31.7-34.81,3.69,0,5.54,1.72,7.61,1.72,4.73,0,9,5.19,9,12.22,0,15.79-23.4,46.92-27.66,58.44l.34.69a578.59,578.59,0,0,1,37.23-49.33c17.64-20.86,35.74-39.19,43.8-39.19,2.54,0,4.15.92,4.15,2.31S150.51,83.61,148.2,85Z"/><path class="cls-3" d="M158.11,157.38c-5.88,11.64-15.44,16.48-22.7,16.48h-.93c-6,6.57-13,11.18-20.51,11.18-9.69,0-16.14-5.42-16.14-16.48,0-16.83,16.83-43,35.5-43,3.34,0,6.11,1.5,9.34,1.5,5.42,0,7.49,4.61,7.49,9.22,0,8.3-3.34,18.79-8.76,28a6.07,6.07,0,0,0,2,.46c6.68,0,11.64-11.41,13.25-11.41.93,0,1.73,1.5,1.73,3A2.25,2.25,0,0,1,158.11,157.38Zm-19.94-23.86c-9.1,0-23.74,19.94-23.74,33.65,0,3.92,1.38,6.69,4.95,6.69a10.87,10.87,0,0,0,6.23-2.42,8.58,8.58,0,0,1-4.61-7.38,7.43,7.43,0,0,1,7.72-7.72,10.26,10.26,0,0,1,6.8,3c4.15-7.27,6.92-15.33,6.92-20C142.44,136.51,141.52,133.52,138.17,133.52Z"/><path class="cls-3" d="M212.4,157.38C206.52,169,197,173.86,189.69,173.86h-.92c-6,6.57-13,11.18-20.51,11.18-9.69,0-16.14-5.42-16.14-16.48,0-16.83,16.83-43,35.5-43,3.34,0,6.11,1.5,9.34,1.5,5.41,0,7.49,4.61,7.49,9.22,0,8.3-3.34,18.79-8.76,28a6.07,6.07,0,0,0,2,.46c6.68,0,11.64-11.41,13.25-11.41.92,0,1.73,1.5,1.73,3A2.25,2.25,0,0,1,212.4,157.38Zm-19.94-23.86c-9.11,0-23.74,19.94-23.74,33.65,0,3.92,1.38,6.69,4.95,6.69a10.87,10.87,0,0,0,6.23-2.42,8.58,8.58,0,0,1-4.61-7.38,7.43,7.43,0,0,1,7.72-7.72,10.26,10.26,0,0,1,6.8,3c4.15-7.27,6.92-15.33,6.92-20C196.73,136.51,195.8,133.52,192.46,133.52Z"/><path class="cls-3" d="M229.46,184.46c-7.26,0-12.91-4.26-12.91-12.56,0-11.3,15.56-32,15.56-32.39a14.37,14.37,0,0,0-5.76-1.84c-.46,0-.81.11-.93.34-5.64,9.22-11.29,17.64-15.33,23.4a1.59,1.59,0,0,1-1.26.92c-1,0-1.73-1.38-1.73-3.46a6.26,6.26,0,0,1,1-2.53,94.5,94.5,0,0,0,7.61-13.26c3.46-6.91,4.15-11.87,6.34-17.06,2.31-5.76,4-6.91,7.84-6.91,1.73,0,2.65,1,2.65,3,0,2.31-1.15,3.23-1.15,3.58s.69.81,2.53.81c5.42,0,11.88-.93,13.49-.93,3.23,0,7.49,6.34,7.49,9,0,2.08-3.57,3.92-6.11,6.8-4.38,4.73-16.25,21.44-16.25,30.43a1.59,1.59,0,0,0,1.61,1.73c2.89,0,8.07-4.49,12-9.33,4.38-5.31,8.07-11.07,8.65-11.07,1,0,1.5,2.08,1.5,4.15S239.49,184.46,229.46,184.46Z"/><path class="cls-3" d="M265.42,184.46c-7.84,0-15.68-3.92-15.68-18.9,0-5.19,8.53-20.4,17.52-35.39,9.8-16.36,19-32.27,24.67-32.27,3.11,0,7.72,2.19,7.72,3.8s-5.3,8.88-8.3,13.83-7.37,12.57-7.37,13l.23.12a18.45,18.45,0,0,1,8.53-2.43c6.34,0,10.83,4.61,10.83,13.72C303.57,157.15,287.78,184.46,265.42,184.46Zm21.78-51.87c-4,0-7.49,4.38-9.22,6.23S261.5,168.33,261.5,173.4c0,2,1.15,3.57,4,3.57,9.11,0,26.17-27.32,26.17-39C291.7,135.82,290.2,132.59,287.2,132.59Z"/><path class="cls-3" d="M337.34,184.58a10.43,10.43,0,0,1-10.6-10.26,11.79,11.79,0,0,1,.11-2.19c-1.84,2.65-10.72,12.56-16,12.56s-10.49-6.68-10.49-13.25c0-14.06,18-43.11,23.86-45.53a15.11,15.11,0,0,1,3-.23c2.88,0,6.92.57,6.92,2.53a1.9,1.9,0,0,1-.35.93c-2.42,4.61-19.71,34.81-19.71,42.76,0,1.73.69,2.42,1.61,2.42,2.65,0,12.11-10.37,18.68-21.55C340.11,143.2,347.6,126,350.14,126c5.65,0,9.91,2,9.91,4,0,3.11-1.84,6-3.34,9.1s-14.64,26.63-14.64,31.59c0,1.38.35,2.42,2.77,2.42,5.87,0,18.55-20.64,19.48-20.64,1.15,0,1.49,2,1.49,3.92C365.81,159.8,348.64,184.58,337.34,184.58Z"/><path class="cls-3" d="M382.76,184.46c-7.27,0-12.91-4.26-12.91-12.56,0-11.3,15.56-32,15.56-32.39a14.43,14.43,0,0,0-5.77-1.84c-.46,0-.8.11-.92.34-5.65,9.22-11.29,17.64-15.33,23.4a1.59,1.59,0,0,1-1.27.92c-1,0-1.72-1.38-1.72-3.46a6.26,6.26,0,0,1,1-2.53A94.5,94.5,0,0,0,369,143.08c3.46-6.91,4.15-11.87,6.34-17.06,2.31-5.76,4-6.91,7.84-6.91,1.73,0,2.65,1,2.65,3,0,2.31-1.15,3.23-1.15,3.58s.69.81,2.53.81c5.42,0,11.87-.93,13.49-.93,3.23,0,7.49,6.34,7.49,9,0,2.08-3.57,3.92-6.11,6.8-4.38,4.73-16.25,21.44-16.25,30.43a1.59,1.59,0,0,0,1.61,1.73c2.88,0,8.07-4.49,12-9.33,4.38-5.31,8.07-11.07,8.64-11.07,1,0,1.5,2.08,1.5,4.15S392.78,184.46,382.76,184.46Z"/><path class="cls-3" d="M448.8,172.82c-9.91,20.63-21.67,49.68-42,49.68-10.37,0-19-6-19-15.33,0-11.3,10.25-19.83,19.25-19.83,5.3,0,8.29,3.35,8.29,6.81,0,3.68-2.88,6.1-3.34,6.1-.23,0-.23-.11-.23-.23v-.92c0-1.38-2.42-2.3-5.53-2.3-7,0-11.53,4.95-11.53,9.33,0,4.84,3.69,7.5,7.84,7.5,9.68,0,16.71-12.8,20.17-19.72a94.24,94.24,0,0,0,6.46-15.56c-3.69,4.27-7.73,6-11.53,6-7.49,0-13.95-7.38-13.95-16.6,0-22.59,24.32-42.42,39.19-42.42,5.54,0,9.68,2.77,10.84,9.11.57-.69,4.61-6.23,5.88-6.92a8.51,8.51,0,0,1,4-.69h1.38c1.62,0,5,.92,5,2.54C470,132,458.6,152.19,448.8,172.82Zm-5.3-39.3c-10.61,0-25.36,23.28-25.36,33.42,0,3.46,1.61,6.46,4.84,6.46,8.07,0,24.55-27.32,24.55-33.89C447.53,135.94,446.61,133.52,443.5,133.52Z"/></g></g></svg>