<svg xmlns="http://www.w3.org/2000/svg" viewBox="0 0 519.13 187.76"><defs><style>.cls-1{font-size:73.84px;font-family:Filicudi-Solid, Filicudi;}.cls-2{fill:#29abe2;}.cls-3{fill:#24c0ea;}</style></defs><title>mainlogo</title><g id="Layer_2" data-name="Layer 2"><g id="Layer_1-2" data-name="Layer 1"><text class="cls-1" transform="translate(0 59.96)">Dental</text><text class="cls-1" transform="translate(262.07 60.15)">Centre</text><path class="cls-2" d="M64.48,151.11c-3.59,0-10.18-11.75-10.18-20,0-11.8,10.39-29.25,18.74-43.27C77.91,79.69,83,71.24,83.11,68.11c-6.94,1.69-23.77,22.08-23.77,33.62,0,.46.06.52.22.68a2.42,2.42,0,0,1,.81,1.74A2.74,2.74,0,0,1,57.45,107c-2.91,0-11.34-5.72-11.34-14.56,0-16.17,18.9-36.81,33.7-36.81a15,15,0,0,1,5.61,1.17,6.46,6.46,0,0,0,2,.56c6.06,0,11,6.37,11,14.21,0,8.7-6.52,21.44-13.33,33.28,6.06-8,12.83-16.6,19.72-24.77,22.38-26.47,37.63-39.9,45.32-39.9,4.25,0,6.15,2.16,6.15,4.31,0,2.32-2.2,3.47-4.32,4.58-.57.29-1.16.6-1.72.94-6.87,4.25-21.22,17.42-40.86,41.61C96.89,107,79.65,129.67,68.71,147.17,67,149.73,66.09,151.11,64.48,151.11Z"/><path class="cls-2" d="M115,150.3c-11.36,0-18.14-6.91-18.14-18.48,0-17.36,17.16-45,37.5-45a21.14,21.14,0,0,1,5.23.82,17.3,17.3,0,0,0,4.11.68c5.76,0,9.49,4.41,9.49,11.22,0,7.74-2.77,17.36-7.49,26.26,3-.93,5.77-4.8,7.7-7.47,1.73-2.4,2.69-3.73,4.24-3.73,2.31,0,3.73,2.6,3.73,5a4.31,4.31,0,0,1-.44,1.93c-4.1,8.12-13,17.59-24.49,17.59h0C129.38,146.54,122.19,150.3,115,150.3Zm24.2-51.52c-7.68,0-21.74,18.61-21.74,31.66,0,4.68,2.07,4.68,2.95,4.68a6.64,6.64,0,0,0,2.68-.63,10.15,10.15,0,0,1-3.06-7.17,9.41,9.41,0,0,1,9.72-9.72,11,11,0,0,1,6.17,2c3.32-6.31,5.55-13,5.55-16.92S139.79,98.78,139.17,98.78Z"/><path class="cls-2" d="M169.26,150.3c-11.36,0-18.14-6.91-18.14-18.48,0-17.36,17.16-45,37.5-45a21.14,21.14,0,0,1,5.23.82,17.22,17.22,0,0,0,4.11.68c5.76,0,9.49,4.41,9.49,11.22,0,7.74-2.77,17.36-7.49,26.26,3-.93,5.77-4.8,7.7-7.47,1.73-2.4,2.69-3.73,4.24-3.73,2.31,0,3.73,2.6,3.73,5a4.31,4.31,0,0,1-.44,1.93c-4.1,8.12-13,17.59-24.5,17.59h0C183.67,146.54,176.48,150.3,169.26,150.3Zm24.2-51.52c-7.68,0-21.74,18.61-21.74,31.66,0,4.68,2.07,4.68,2.95,4.68a6.64,6.64,0,0,0,2.68-.63,10.1,10.1,0,0,1-3.06-7.17A9.41,9.41,0,0,1,184,117.6a11,11,0,0,1,6.17,2c3.32-6.31,5.55-13,5.55-16.92S194.08,98.78,193.46,98.78Z"/><path class="cls-2" d="M230.46,149.72c-9.06,0-14.91-5.71-14.91-14.56,0-9.91,10.57-25.66,14.6-31.56a12.22,12.22,0,0,0-2.41-.64c-6.24,10.15-12,18.6-15,22.81a3.51,3.51,0,0,1-2.94,1.82c-1.72,0-3.73-1.43-3.73-5.45a7.38,7.38,0,0,1,1.32-3.57l.06-.1a90.8,90.8,0,0,0,7.45-13A65.3,65.3,0,0,0,219,94.92a66.77,66.77,0,0,1,2.24-6.41c2.49-6.23,4.76-8.14,9.68-8.14,2.83,0,4.65,2,4.65,5a7.6,7.6,0,0,1-.36,2.38c3.34,0,7-.39,9.77-.65,1.62-.16,2.79-.28,3.46-.28,4.63,0,9.49,7.63,9.49,11,0,2.23-1.85,3.82-3.8,5.49a28,28,0,0,0-2.81,2.64c-4.67,5-15.46,20.7-15.74,28.79,1.91-.43,6-3.62,10-8.55,2.08-2.52,4-5.12,5.51-7.2,2.86-3.9,3.37-4.61,4.69-4.61,1.05,0,3.5.6,3.5,6.15C259.32,124.18,241.62,149.72,230.46,149.72Z"/><path class="cls-2" d="M266.42,149.72c-6.6,0-17.68-2.71-17.68-20.9,0-4.72,5.33-15.61,17.81-36.41L268,90.05c11.45-19.15,18.77-30.89,25-30.89,3.41,0,9.72,2.39,9.72,5.8,0,1.47-1.34,3.65-5.16,9.51-1.21,1.84-2.45,3.75-3.42,5.36-1.73,2.81-3.55,5.92-4.93,8.36a17.41,17.41,0,0,1,4.6-.67c7.91,0,12.83,6,12.83,15.71C306.57,122,289.71,149.72,266.42,149.72ZM288.2,97.86c-2.7,0-5.45,3-7.1,4.87l-.66.72c-2.06,2.47-15.94,29.18-15.94,33.21,0,.76.16,1.57,2,1.57,7.46,0,24.17-25.56,24.17-37C290.7,100.05,289.87,97.86,288.2,97.86Z"/><path class="cls-2" d="M311.83,150c-6.3,0-12.49-7.56-12.49-15.26,0-14.32,18-44.46,25.1-47.38l.14,0,.14,0a16.72,16.72,0,0,1,3.48-.29c5.67,0,8.92,1.65,8.92,4.54a3.72,3.72,0,0,1-.62,1.93l-1.75,3.2c-4.37,8-17.69,32.21-17.69,38.55v.19c2.72-1.59,10.56-10.11,16.56-20.34,2.05-3.4,4.33-7.78,6.52-12,6.51-12.53,8.44-15.7,11-15.7,5.92,0,11.91,2.07,11.91,6,0,3-1.36,5.67-2.68,8.25-.29.57-.58,1.14-.86,1.72s-.64,1.21-1.18,2.21c-11,20.41-13.26,26.77-13.26,28.51,0,.16,0,.28,0,.35a3.47,3.47,0,0,0,.76.07c3.19,0,11.82-11.87,14.66-15.77,3.2-4.4,3.54-4.86,4.82-4.86s3.49.77,3.49,5.92c0,4.46-18.15,30.12-30.47,30.12a12.56,12.56,0,0,1-12.23-9.3C322.4,144.55,316.44,150,311.83,150Z"/><path class="cls-2" d="M383.76,149.72c-9.06,0-14.91-5.71-14.91-14.56,0-9.91,10.57-25.66,14.6-31.56A12.4,12.4,0,0,0,381,103c-6.25,10.15-12,18.6-15,22.81a3.52,3.52,0,0,1-2.95,1.82c-1.72,0-3.72-1.43-3.72-5.45a7.38,7.38,0,0,1,1.32-3.57l.06-.1a91.79,91.79,0,0,0,7.45-13,65.3,65.3,0,0,0,4.07-10.57,66.77,66.77,0,0,1,2.24-6.41c2.49-6.23,4.75-8.14,9.68-8.14,2.82,0,4.65,2,4.65,5a7.6,7.6,0,0,1-.36,2.38c3.34,0,7.05-.39,9.77-.65,1.62-.16,2.79-.28,3.46-.28,4.63,0,9.49,7.63,9.49,11,0,2.23-1.85,3.82-3.81,5.49a29.06,29.06,0,0,0-2.8,2.64c-4.67,5-15.46,20.7-15.75,28.79,1.91-.43,6.05-3.62,10.05-8.55,2.08-2.52,4-5.12,5.51-7.2,2.86-3.9,3.37-4.61,4.68-4.61,1.06,0,3.5.6,3.5,6.15C412.61,124.18,394.92,149.72,383.76,149.72Z"/><path class="cls-2" d="M407.84,187.76c-12.17,0-21-7.29-21-17.33,0-12.49,11.21-21.82,21.25-21.82,6.68,0,10.29,4.53,10.29,8.8s-3.33,8.11-5.34,8.11a2.18,2.18,0,0,1-2.23-2.23v-.58a7.61,7.61,0,0,0-3.53-.65c-3.9,0-9.53,2.61-9.53,7.33,0,3.8,2.93,5.5,5.84,5.5,9.08,0,16.08-14,18.38-18.61,1.53-2.91,2.88-5.95,3.94-8.55a15.15,15.15,0,0,1-7.22,1.88c-8.79,0-15.95-8.34-15.95-18.6,0-24.09,25.3-44.42,41.19-44.42,5.46,0,9.52,2.46,11.59,6.87,2.14-2.72,3.27-3.91,4.11-4.4a9.69,9.69,0,0,1,5.05-1h1.38c2.43,0,7,1.33,7,4.54,0,1.83-2.15,6.17-8.82,19.14-3.71,7.23-8.34,16.24-12.58,25.17-.87,1.8-1.74,3.66-2.64,5.56C439.46,162.67,427.63,187.76,407.84,187.76Zm36.66-89c-9.29,0-23.36,22.31-23.36,31.42,0,.75.14,4.46,2.84,4.46,2.25,0,7.35-4.2,13.64-13.59,5.51-8.21,8.91-15.89,8.91-18.3C446.53,98.78,445.36,98.78,444.5,98.78Z"/><path class="cls-3" d="M148.2,48.25c-7.26,4.5-22,18.21-41.38,42.07C93,107.38,76.39,129.51,66,146.11c-1.38,2.08-2.08,3-2.54,3-1.5,0-8.18-9.68-8.18-18,0-18.91,28.81-54.41,28.81-63.17,0-1-.34-2-1.15-2-7.72,0-26.62,22.94-26.62,35.73,0,1.85,1,2.08,1,2.42s-.11.81-.92.81c-1.73,0-9.34-4.84-9.34-12.56,0-14.87,18-34.81,31.7-34.81,3.69,0,5.54,1.73,7.61,1.73,4.73,0,9,5.18,9,12.21,0,15.8-23.4,46.92-27.66,58.44l.34.7a576.94,576.94,0,0,1,37.23-49.34c17.64-20.86,35.74-39.19,43.8-39.19,2.54,0,4.15.92,4.15,2.31S150.51,46.87,148.2,48.25Z"/><path class="cls-3" d="M158.11,120.64c-5.88,11.64-15.44,16.48-22.7,16.48h-.93c-6,6.57-13,11.18-20.51,11.18-9.69,0-16.14-5.42-16.14-16.48,0-16.83,16.83-43,35.5-43,3.34,0,6.11,1.5,9.34,1.5,5.42,0,7.49,4.61,7.49,9.22,0,8.3-3.34,18.79-8.76,28a6.07,6.07,0,0,0,2,.46C150,128,155,116.6,156.61,116.6c.93,0,1.73,1.5,1.73,3A2.25,2.25,0,0,1,158.11,120.64ZM138.17,96.78c-9.1,0-23.74,19.94-23.74,33.66,0,3.91,1.38,6.68,4.95,6.68a10.87,10.87,0,0,0,6.23-2.42,8.58,8.58,0,0,1-4.61-7.38,7.43,7.43,0,0,1,7.72-7.72,10.26,10.26,0,0,1,6.8,3c4.15-7.26,6.92-15.33,6.92-19.94C142.44,99.77,141.52,96.78,138.17,96.78Z"/><path class="cls-3" d="M212.4,120.64c-5.88,11.64-15.44,16.48-22.71,16.48h-.92c-6,6.57-13,11.18-20.51,11.18-9.69,0-16.14-5.42-16.14-16.48,0-16.83,16.83-43,35.5-43,3.34,0,6.11,1.5,9.34,1.5,5.41,0,7.49,4.61,7.49,9.22,0,8.3-3.34,18.79-8.76,28a6.07,6.07,0,0,0,2,.46c6.68,0,11.64-11.41,13.25-11.41.92,0,1.73,1.5,1.73,3A2.25,2.25,0,0,1,212.4,120.64ZM192.46,96.78c-9.11,0-23.74,19.94-23.74,33.66,0,3.91,1.38,6.68,4.95,6.68a10.87,10.87,0,0,0,6.23-2.42,8.58,8.58,0,0,1-4.61-7.38A7.43,7.43,0,0,1,183,119.6a10.26,10.26,0,0,1,6.8,3c4.15-7.26,6.92-15.33,6.92-19.94C196.73,99.77,195.8,96.78,192.46,96.78Z"/><path class="cls-3" d="M229.46,147.72c-7.26,0-12.91-4.26-12.91-12.56,0-11.3,15.56-32,15.56-32.39a14.37,14.37,0,0,0-5.76-1.84c-.46,0-.81.11-.93.34-5.64,9.22-11.29,17.64-15.33,23.4a1.59,1.59,0,0,1-1.26.92c-1,0-1.73-1.38-1.73-3.45a6.18,6.18,0,0,1,1-2.54,95.8,95.8,0,0,0,7.6-13.26c3.46-6.91,4.15-11.87,6.34-17,2.31-5.77,4-6.92,7.84-6.92,1.73,0,2.65,1,2.65,3,0,2.3-1.15,3.22-1.15,3.57s.69.81,2.53.81c5.42,0,11.88-.93,13.49-.93,3.23,0,7.49,6.34,7.49,9,0,2.08-3.57,3.92-6.11,6.81-4.38,4.72-16.25,21.43-16.25,30.43a1.59,1.59,0,0,0,1.61,1.72c2.89,0,8.07-4.49,12-9.33,4.38-5.3,8.07-11.07,8.65-11.07,1,0,1.5,2.08,1.5,4.15S239.49,147.72,229.46,147.72Z"/><path class="cls-3" d="M265.42,147.72c-7.84,0-15.68-3.91-15.68-18.9,0-5.19,8.53-20.4,17.52-35.38,9.8-16.37,19-32.28,24.67-32.28,3.11,0,7.72,2.19,7.72,3.8s-5.3,8.88-8.3,13.84S284,91.36,284,91.82l.23.12a18.43,18.43,0,0,1,8.53-2.42c6.34,0,10.83,4.61,10.83,13.71C303.57,120.41,287.78,147.72,265.42,147.72ZM287.2,95.86c-4,0-7.49,4.38-9.22,6.22s-16.48,29.51-16.48,34.58c0,2,1.15,3.57,4,3.57,9.11,0,26.17-27.32,26.17-39C291.7,99.08,290.2,95.86,287.2,95.86Z"/><path class="cls-3" d="M337.34,147.84a10.42,10.42,0,0,1-10.6-10.26,11.79,11.79,0,0,1,.11-2.19C325,138,316.14,148,310.83,148s-10.49-6.69-10.49-13.26c0-14.06,18-43.11,23.86-45.53a15.11,15.11,0,0,1,3-.23c2.88,0,6.92.58,6.92,2.54a1.87,1.87,0,0,1-.35.92c-2.42,4.61-19.71,34.81-19.71,42.76,0,1.73.69,2.42,1.61,2.42,2.65,0,12.11-10.37,18.68-21.55,5.76-9.57,13.25-26.74,15.79-26.74,5.65,0,9.91,2,9.91,4,0,3.11-1.84,6-3.34,9.11S342.07,129.05,342.07,134c0,1.38.35,2.42,2.77,2.42,5.87,0,18.55-20.63,19.48-20.63,1.15,0,1.49,2,1.49,3.92C365.81,123.06,348.64,147.84,337.34,147.84Z"/><path class="cls-3" d="M382.76,147.72c-7.27,0-12.91-4.26-12.91-12.56,0-11.3,15.56-32,15.56-32.39a14.43,14.43,0,0,0-5.77-1.84c-.46,0-.8.11-.92.34-5.65,9.22-11.29,17.64-15.33,23.4a1.59,1.59,0,0,1-1.27.92c-1,0-1.72-1.38-1.72-3.45a6.31,6.31,0,0,1,1-2.54A94.5,94.5,0,0,0,369,106.34c3.46-6.91,4.15-11.87,6.34-17,2.31-5.77,4-6.92,7.84-6.92,1.73,0,2.65,1,2.65,3,0,2.3-1.15,3.22-1.15,3.57s.69.81,2.53.81c5.42,0,11.87-.93,13.49-.93,3.23,0,7.49,6.34,7.49,9,0,2.08-3.57,3.92-6.11,6.81-4.38,4.72-16.25,21.43-16.25,30.43a1.59,1.59,0,0,0,1.61,1.72c2.88,0,8.07-4.49,12-9.33,4.38-5.3,8.07-11.07,8.64-11.07,1,0,1.5,2.08,1.5,4.15S392.78,147.72,382.76,147.72Z"/><path class="cls-3" d="M448.8,136.08c-9.91,20.64-21.67,49.68-42,49.68-10.37,0-19-6-19-15.33,0-11.29,10.25-19.82,19.25-19.82,5.3,0,8.29,3.34,8.29,6.8,0,3.69-2.88,6.11-3.34,6.11-.23,0-.23-.12-.23-.23v-.93c0-1.38-2.42-2.3-5.53-2.3-7,0-11.53,4.95-11.53,9.33,0,4.85,3.69,7.5,7.84,7.5,9.68,0,16.71-12.8,20.17-19.71a94.61,94.61,0,0,0,6.46-15.56c-3.69,4.26-7.73,6-11.53,6-7.49,0-13.95-7.38-13.95-16.6,0-22.59,24.32-42.42,39.19-42.42,5.54,0,9.68,2.77,10.84,9.11.57-.69,4.61-6.22,5.88-6.92a8.51,8.51,0,0,1,4-.69h1.38c1.62,0,5,.92,5,2.54C470,95.28,458.6,115.45,448.8,136.08Zm-5.3-39.3c-10.61,0-25.36,23.28-25.36,33.42,0,3.46,1.61,6.46,4.84,6.46,8.07,0,24.55-27.32,24.55-33.89C447.53,99.2,446.61,96.78,443.5,96.78Z"/></g></g></svg>