<svg xmlns="http://www.w3.org/2000/svg" viewBox="0 0 187.01 187.56"><defs><style>.cls-1{fill:#e8aa9a;}.cls-2{fill:#1595a8;}.cls-3{fill:#448f98;}.cls-4{fill:#70768a;}.cls-5{fill:#e94c66;}.cls-6{fill:#ea4d65;}.cls-7{fill:#cdb1a9;}.cls-8{fill:#cfb1a9;}.cls-9{fill:#a4c5cc;}.cls-10{fill:#458796;}.cls-11{fill:#fefefe;}.cls-12{fill:#b1ccd1;}.cls-13{fill:#c8c8ca;}.cls-14{fill:#f0f0f1;}</style></defs><title>pain-tooth</title><g id="Layer_2" data-name="Layer 2"><g id="Layer_1-2" data-name="Layer 1"><path class="cls-1" d="M52.49,178.25l-4.94-2.56C44.12,173,40.17,171,36.81,168.2c-1.51-1.27-3-2.53-4.63-3.71-11.41-10-19.61-22.24-25.65-36.05-3.21-7.38-4.79-15.17-6-23.07A105.53,105.53,0,0,1,.05,90a92.22,92.22,0,0,1,2-16.46,2.94,2.94,0,0,1,.57-1.36,2,2,0,0,1,.76-.5,24.11,24.11,0,0,1,8.67-.33c6.28.55,12.58.59,18.84,1.4a277.41,277.41,0,0,1,33.23,6.11c.31.08.66,0,1,.09,1.61,1.1,1.49,3,2.09,4.59,2.3,6,2.32,12.35,2.76,18.58a71,71,0,0,1-.59,11.15c-.43,4.76.26,9.44.52,14.16.28,5.2,2.38,9.91,3.66,14.85,1.79,6.88,3.76,13.71,5.34,20.65.56,2.5,1.71,4.77,4.67,5.51s4.52,0,4.8-3.18c.45-5.11,1.28-10.21,1.29-15.33,0-5.75,1.61-11.31,1.48-17.08-.08-3.9.16-7.82,0-11.72-.12-4.59.46-9.12.69-13.67a6.1,6.1,0,0,1,4.26-5.85A6.68,6.68,0,0,1,103.5,104a5.22,5.22,0,0,1,1,3c.16,8.39,1.05,16.77.74,25.17-.09,2.49-.06,5,0,7.46.87,7.84.93,15.73,1.28,23.61.15,3.48,1.76,5.21,5.07,5.94a4.07,4.07,0,0,0,4.91-2.69c1.77-4.16,2.3-8.64,3.5-12.95,2.72-9.8,3-20,4.76-30,.81-4.59.92-9.38,1.49-14.07a32.85,32.85,0,0,1,2.07-9.42,6.73,6.73,0,0,0,.5-3.9c-.84-5.07.47-9.86,1.89-14.64,4.43-2.72,9.45-3.72,14.45-4.2,12.69-1.23,25.38-1.63,37.61,3a5.89,5.89,0,0,0,3.39.23c.89.38.79,1.19.78,1.91-.11,7.29.37,14.59-.27,21.86A98.35,98.35,0,0,1,184,118c-.53,4.69-2.58,8.92-4.4,13.14a87.4,87.4,0,0,1-10.71,18.67c-6.29,8.2-13.44,15.57-22.24,21.18-1.54,1-2.83,2.31-4.47,3.16a88.72,88.72,0,0,1-16.08,7.73,107.15,107.15,0,0,1-17.48,4.63,102.71,102.71,0,0,1-24.08.67,81.86,81.86,0,0,1-24.33-5.74C57.63,180.37,54.87,179.77,52.49,178.25Z"/><path class="cls-2" d="M5.11,61.28A105.79,105.79,0,0,1,18.78,36.63,93.29,93.29,0,0,1,36.11,19.18,88.24,88.24,0,0,1,55.33,7.81,88.8,88.8,0,0,1,74.49,1.74,103.75,103.75,0,0,1,97.78.1a98.25,98.25,0,0,1,23,3.84,90.15,90.15,0,0,1,15.58,6.47,89.92,89.92,0,0,1,22,15.76,91,91,0,0,1,16.74,21.91,82.1,82.1,0,0,1,8.41,21.18,2.8,2.8,0,0,1-3.07,0c-3.89-1.73-8.15-1.18-12.19-2.09a33.41,33.41,0,0,0-6.63-.71,122.39,122.39,0,0,0-24.17,2.18c-2.62.47-3.64-.39-2.8-2.87,1.16-3.43,1.39-7,1.87-10.48a27.32,27.32,0,0,0-2.14-14.08c-1.24-3.06-2.24-6.3-4.84-8.6-5.09-5.43-8-5.65-15.47-3.22-3.92,1.28-7.71,2.92-11.83,3.54-3.53.53-6.74-.43-9.87-1.88A26.36,26.36,0,0,0,81.8,28.59C72.17,28.38,67,31.85,62.67,41.05a7,7,0,0,1-1.18,2.45,21.81,21.81,0,0,0-2.21,9.09,52.37,52.37,0,0,0,.59,10.9c.41,2.82-.49,3.74-3.44,3.5s-5.67-1.06-8.52-1.48a6.4,6.4,0,0,1-.88-.09c-6.27-1-12.48-2.2-18.88-2.59-4.43-.26-8.86-.79-13.31-.8H7.62C6.7,62,5.77,62.12,5.11,61.28Z"/><path class="cls-3" d="M129.9,31.87c4.22,4.62,6,10.27,7.12,16.28,1.07,5.73-.17,11.17-1.44,16.65-.15.64-.35,1.28-.48,1.93-.21,1.08.26,1.71,1.35,1.4,2.54-.72,5.29-.36,7.73-1.59a3,3,0,0,1,1.21-.24c7.94-.32,15.93-1.2,23.82.09,4.78.78,9.69,1.11,14.28,2.87l.83,1.51c.52.32.41.71.11,1.11-2.18,0-4.16-.93-6.25-1.34-9-1.76-18-2.85-27.13-1.85-4.93.54-9.91.7-14.74,2a3.66,3.66,0,0,1-2.68-.08A1.6,1.6,0,0,1,133,70c-.57-2.91.89-5.5,1.51-8.18a38.58,38.58,0,0,0,1.14-10.77,30.88,30.88,0,0,0-4-13.48,6.64,6.64,0,0,0-1.26-1.54,3,3,0,0,1-.62-1.07C129.82,34,128.91,32.88,129.9,31.87Z"/><path class="cls-4" d="M5.11,61.28H15c2.1.63,4.27.14,6.42.44,4.65.67,9.37.87,14.05,1.31,4,.37,8,1.56,12,1.75h0a61.45,61.45,0,0,0,12.93,2,1.48,1.48,0,0,1,.76,1.48,1.62,1.62,0,0,1-.87,1,4.66,4.66,0,0,1-3.19-.06C49,67,40.44,66.57,32.13,65a52.55,52.55,0,0,0-7.94-.57c-4.81-.17-9.6-.72-14.42-.77-1.91,0-3.19.48-4,2.52s-.61,4.32-2.22,6L3,72.23c-1-2.11.23-4,.53-6A19.62,19.62,0,0,1,5.11,61.28Z"/><path class="cls-5" d="M3.53,72.15c-.44-3,1-5.51,2-8.12.7-1.88,2.68-1.58,4.12-1.52,7.3.33,14.64.42,21.85,1.42,5.4.76,10.88,1.13,16.23,2.36,4.28,1,8.63,1.62,12.94,2.41.08,0,.21,0,.24,0,2.1,3.27,4,6.63,4.24,10.65-2.56.77-4.9-.47-7.26-1a265.3,265.3,0,0,0-33.42-5.18C17.46,72.62,10.49,72.55,3.53,72.15Z"/><path class="cls-6" d="M184.37,71.83l1.69,9c-.14,1.3-.2,2.25-2.06,1.31-5.63-2.84-11.79-3.9-18-4.31a149.1,149.1,0,0,0-14.95,0,50.36,50.36,0,0,0-17.18,3.4,7.6,7.6,0,0,1-2.89.68,2.33,2.33,0,0,1-.68-2.7c.73-2.75,1.43-5.52,2.23-8.25a1.23,1.23,0,0,1,.92-.75,106.42,106.42,0,0,1,27.59-2.84,95.33,95.33,0,0,1,21.09,3C183.09,70.57,183.62,71.33,184.37,71.83Z"/><path class="cls-7" d="M65.1,79.39,60.62,68.7l.4-.46a1.13,1.13,0,0,1,1.28-.07,2.91,2.91,0,0,1,1.22,1.53c2,6,5.46,11.39,6.86,17.63a35,35,0,0,1,1,6.88c.13,6.9.46,13.8-.24,20.7-.49,4.9.28,9.78,1,14.63.87,5.78,3,11.21,4.53,16.82q1.8,6.73,3.3,13.55a14.77,14.77,0,0,0,2,5.31,2.67,2.67,0,0,0,3,1.25c1.24-.3,1.29-1.35,1.42-2.37,1-7.91,1.24-15.89,2.06-23.82A307.25,307.25,0,0,0,90,108.18c0-6.3,4.55-9.74,10.47-8.39,3.47.8,5.63,4,6,8.24.95,10.13.22,20.28.5,30.43a30.49,30.49,0,0,0-.3,6.19c0,.74,0,1.49-.07,2.23s-.24,1.35-.88,1.33c-.82,0-.56-.88-.53-1.38a34.34,34.34,0,0,0-.77-7.08,62.86,62.86,0,0,1-.12-7.14c.4-6.21-.22-12.42-.79-18.62-.19-2.15-.07-4.32-.09-6.49,0-3-1.69-5-4.44-5.23-3.35-.29-5.81,1.34-6.18,4.37A103.19,103.19,0,0,0,92,117c-.13,6.49-.05,13,0,19.48a22.09,22.09,0,0,1-1.22,7.81,5.42,5.42,0,0,0-.26,2.2c.37,6.06-.9,12-1.1,18.05,0,1.49-.21,3.16-1.63,4.29-2,1.56-6.65.48-7.82-1.71-3.22-6-3.83-12.77-5.86-19.12-1.45-4.55-2.43-9.24-4.15-13.71-1-2.51-.6-5.21-.95-7.82-.65-4.79-.41-9.61-.54-14.42a34.51,34.51,0,0,1,.59-6.68c.59-3.62-.48-7.07-.63-10.6C68.19,89.49,66.69,84.42,65.1,79.39Z"/><path class="cls-8" d="M104.49,139.75a17.46,17.46,0,0,1,1,5.73c0,.69-.32,1.44.27,2.06a4.08,4.08,0,0,0,.2-2.16c0-2.39,0-4.77,0-7.16,1.47.25,1.53,1.47,1.46,2.48-.39,5.23.9,10.41.19,15.69-.42,3.11.77,6.23,1.58,9.25.6,2.19,3,2.53,4.57.89a7.31,7.31,0,0,0,1.8-3.23c2.15-7.87,3.51-15.89,4.89-23.92.85-5,1.48-10,2.1-15,1-7.75,1.86-15.51,2.87-23.25a268.35,268.35,0,0,1,4.71-27.75,9.07,9.07,0,0,1,1.17-3,1.56,1.56,0,0,1,1.94-.65l.18.51c-.75,3.92-2.6,7.6-2.47,11.7A24.34,24.34,0,0,1,130,88a14.72,14.72,0,0,0-.3,6.91,10.53,10.53,0,0,1-.77,6.47,27.56,27.56,0,0,0-1.87,7.94c-1,8.12-1.3,16.31-2.87,24.38a135.61,135.61,0,0,0-1.63,13.8c-.21,2.36-1.2,4.47-1.71,6.73-1,4.43-2.3,8.79-3.5,13.17a3.15,3.15,0,0,1-1.48,1.91,6.54,6.54,0,0,1-9.18-3,11.92,11.92,0,0,1-1.16-6.23C105.78,153.3,104.94,146.53,104.49,139.75Z"/><path class="cls-9" d="M62,68.27l-1,0-.56-.94c-1.14-2.71-1.2-5.64-1.55-8.48a36.42,36.42,0,0,1,1.6-15.19,2.38,2.38,0,0,1,.57-.82,31.84,31.84,0,0,1,5-8.77c4.51-5.54,10.6-6.76,17.27-6.11a38.25,38.25,0,0,1,12.54,3.64c3.89,1.82,8,.46,11.91-.71,2.13-.64,4.17-1.54,6.26-2.33,6-2.24,11.39-1.88,15.79,3.34-.05,1,.86,1.87.54,2.95-1.32.3-1.94-.67-2.62-1.48-3.38-4-6.47-4.83-11.43-3.14-3,1-5.88,2.25-8.92,3.07-6.54,1.78-12.94,1.56-19-1.68a2.48,2.48,0,0,0-2.61-.81,2.44,2.44,0,0,1-2.24-.42,2.82,2.82,0,0,0-1.18.19c-.59.06-1.12-.25-1.7-.23-7.65-1-12.15,3.41-15.58,9.34a30.11,30.11,0,0,0-3.75,18.93,44.4,44.4,0,0,0,1,6.88C62.62,66.39,62.86,67.45,62,68.27Z"/><path class="cls-10" d="M61.08,42.81a40.27,40.27,0,0,0-.74,22.76,9.86,9.86,0,0,1,.12,1.73c-4.34-.69-8.84-.6-13-2.52,2.86-.19,5.48,1.1,8.28,1.38,3.15.32,3.62.1,3.23-3.08-.76-6.14-1-12.24.86-18.25C60.13,44.05,60.1,43.15,61.08,42.81Z"/><path class="cls-10" d="M47.51,64.78A32,32,0,0,1,39.13,64c-5.28-1.13-10.72-.93-16.05-1.69-2.68-.38-5.43-.13-8-1,7.77-.37,15.42,1,23.11,1.71A37.83,37.83,0,0,1,47.51,64.78Z"/><path class="cls-11" d="M88.49,30.85c4.52,1.76,9.13,3.06,14.05,2.47,4.21-.51,8.14-2.07,12-3.61,4.06-1.6,8-2.15,11.79.57A8,8,0,0,1,128.09,32c.74,1,1.11,2.27,2.35,2.82l.51.51A58.81,58.81,0,0,1,134,41.8c2.79,7.46,2.31,14.93.23,22.42-.57,2.06-.83,4.24-2.21,6a176.63,176.63,0,0,0-4.19,21.23c-1,7.48-2.13,14.94-2.87,22.46-.56,5.61-1.55,11.17-2.19,16.78-.7,6.1-1.74,12.15-2.88,18.17q-1.52,7.94-3.53,15.76a5,5,0,0,1-3.77,4,3.49,3.49,0,0,1-3.78-1.29c-.24-.34-.61-.67-.66-1-.53-3.89-1.73-7.61-1.44-11.71a89.37,89.37,0,0,0-.72-16.33c0-8.07.13-16.14-.1-24.21-.09-3.26.19-6.67-1.36-9.78a6.34,6.34,0,0,0-6.69-3.78c-3.38.22-5.25,1.66-6.27,4.73a13.25,13.25,0,0,0-.57,4.19c0,9.23-.18,18.45-1,27.66s-1.66,18.7-2.45,28.05c-.11,1.2-.51,2.2-1.66,2.53a3.8,3.8,0,0,1-4-.71c-1.71-1.65-2.32-3.82-2.79-6-2-9.15-4.85-18.05-7.17-27.09a62.93,62.93,0,0,1-1.71-20.51,113.41,113.41,0,0,0-.12-20.68c-.67-6.4-3-12.12-5.79-17.79A64,64,0,0,1,62,68.27c-1.67-6.23-2.58-12.59-1.39-19,1.45-7.81,4.76-14.66,12-18.86,2.74-1.58,5.8-1.2,8.79-1.12.9,1,.51,2.17.35,3.28-.3,2,.43,3.44,2.55,3.78,2.27.36,3.16,1.38,2.53,3.77-.41,1.56.17,3.29-.92,4.8-.41.58,0,1.23.73,1.58a6.78,6.78,0,0,0,2.66.52c2.23.13,2.86.83,2.94,3.11,0,.25,0,.5,0,.75,0,3.59,1.3,5,5,5.59.24,0,.52.22.69,0s0-.48-.17-.69a5.28,5.28,0,0,0-1-1.44c-2.17-1.64-2.35-4.07-2.48-6.46-.11-2-.59-3.39-3-3.4-1.42,0-2-1-2.07-2.31a7.73,7.73,0,0,1,.24-2c.83-3.47.44-4.22-2.69-5.67-.3-.13.06.07-.23-.1-1.25-.71-2.69-1.43-1.76-3.21S87.12,29.72,88.49,30.85Z"/><path class="cls-12" d="M132,70.23c1.2-4.68,2.71-9.27,3.2-14.15a33.35,33.35,0,0,0-3.29-18c-.42-.89-1.08-1.69-1-2.76,2,1.23,2.41,3.52,3.16,5.4A32.24,32.24,0,0,1,136.19,57c-.56,4.36-1.94,8.46-2.91,12.69Z"/><path class="cls-13" d="M88.49,30.85c-.56-.16-1.11-.35-1.67-.48a1.21,1.21,0,0,0-1.54.91,1.47,1.47,0,0,0,.38,1.81,6.08,6.08,0,0,0,1.11.56C90.7,35.5,91,36.08,90.33,40.4c-.48,3.08-.48,3.14,2.55,3.29,1.13.05,1.67.46,1.76,1.58.06.74.3,1.47.34,2.21.19,2.88.74,5.55,3.3,7.4,1,.69,2,2,1.35,2.92-.8,1.2-2.06.12-3-.44a4.09,4.09,0,0,0-.89-.44c-3.3-.85-4.84-2.81-4.2-6.33.36-2-.57-2.93-2.66-2.78a13,13,0,0,1-2.19-.35c-1.8-.2-1.87-1.34-1.49-2.7.17-.63.61-1.2.71-1.83a14.73,14.73,0,0,0,.41-4.44c-.32-2-2.5-1.1-3.75-1.79S80.75,35.4,80.94,34c.21-1.55.31-3.13.46-4.69l1.09.94a1.38,1.38,0,0,1,.73,1.47c-.38,2.52,1.32,3.47,3.21,4a2,2,0,0,1,1.79,2.49c-.21,1.72,0,3.48-.63,5.15-.5,1.27,0,1.83,1.31,2.33s3.26-.33,4,1.36c.63,1.36.21,2.95.53,4.41.07.32,0,.67,0,1a2.81,2.81,0,0,0,.09.49,3.69,3.69,0,0,0-.08-.46c-.13-1.73-.22-3.47-.45-5.19A1.33,1.33,0,0,0,91.34,46a5,5,0,0,1-2.89-.6,1.38,1.38,0,0,1-.89-2c.73-1.65.4-3.43.66-5.14.21-1.38-.23-2.17-1.86-2.61-3.23-.87-4.14-4-2.28-6.84.47.59.35,1.89,1.88,1.09A1.63,1.63,0,0,1,88.49,30.85Z"/><path class="cls-14" d="M84.08,28.82c0,1-.07,2-.09,3a3.22,3.22,0,0,0,2.74,3.38c2.24.5,2.48,2,2.22,3.74-.17,1.15-.37,2.28-.52,3.43-.28,2.22.39,3.25,2.47,2.74,2.39-.59,2.64.4,2.64,2.35,0,2.46-.05,5,2.18,6.83.17.14.39.49.33.61-.2.38-.54.08-.84.06-1.6-.13-2.44-.89-2.26-2.58a2.78,2.78,0,0,0,0-.5c-.06-4.73,0-4.82-4.77-5.51-1.62-.24-1.71-.89-1.29-2.14a19.65,19.65,0,0,0,.69-5.66,2.08,2.08,0,0,0-1.73-2.49c-3.33-1-3.3-1.09-3.36-5.8C82.48,29.2,82.91,28.6,84.08,28.82Z"/></g></g></svg>